<svg version="1.2" baseProfile="tiny-ps" xmlns="http://www.w3.org/2000/svg" viewBox="0 0 1564 1615" width="1564" height="1615">
	<title>2020-annual-review-en-1-pdf-svg-svg</title>
	<defs>
		<clipPath clipPathUnits="userSpaceOnUse" id="cp1">
			<path d="M-744.98 -599.78L14873.8 -599.78L14873.8 18692.03L-744.98 18692.03L-744.98 -599.78Z" />
		</clipPath>
	</defs>
	<style>
		tspan { white-space:pre }
		.txt0 { font-size: 15px;fill: #000000;font-family: "Nestle   Text" } 
		.shp1 { fill: #776d65 } 
	</style>
	<g id="Clip-Path: Clip-Path: Page 1" clip-path="url(#cp1)">
		<g id="Clip-Path: Page 1">
			<g id="Page 1">
				<text id="Nestlé – 
" style="transform: matrix(0,13.088,-13.092,0,-1061.82,141.993)" >
					<tspan x="0" y="0" class="txt0">Nestlé – 
</tspan>
				</text>
				<text id="Annual Review 2020
" style="transform: matrix(0,13.088,-13.092,0,-1061.82,916.48)" >
					<tspan x="0" y="0" class="txt0">Annual Review 2020
</tspan>
				</text>
				<path id="Path 7" fill-rule="evenodd" class="shp1" d="M924.11 788.31C927.64 789.38 932.11 789.89 938.23 789.89C972.42 789.89 999.93 770.41 1033.05 744.22L1034.07 754.94C1034.33 757.7 1034.62 760.46 1034.62 763.44C1034.62 769.86 1032.63 775.64 1024.38 781.89C1001.33 799.84 964.29 819.48 928.58 819.48C918.63 819.48 910.89 817.78 902.13 815.27C839.54 853.37 742.25 869.61 639.23 869.61L619.33 869.61L621.54 860.17C622.98 854.18 625.07 849.71 627.96 847.2C630.98 844.74 634 843.29 642.5 843.29C660.95 843.29 722.1 841.21 759.43 832.28C749.18 806.51 730.73 774.2 702.33 774.2C684.64 774.2 658.62 784.4 629.53 796.82C596.28 811.1 562.9 827.73 551.38 833.98L536.2 813.7C547.47 806.26 583.06 786.61 621.79 769.6C654.92 754.94 683.62 742.01 708.37 742.01C744.21 742.01 778.14 783.34 791.62 824.97C814.41 819.61 832.35 813.7 846.98 808.09C905.11 785.85 900.13 752.85 955.28 695.41C979.22 670.41 1007.37 645.66 1035.77 633.24C1041.55 637.03 1052.52 644.21 1060.26 648.93C987.21 687.41 957.49 734.78 924.11 788.31ZM963.78 586.64C968.76 591.36 976.75 596.34 983.94 601.82L970.08 619.77C917.44 687.54 872.66 745.41 835.76 745.41C801.31 745.41 788.35 704.8 787.71 674.57C735.07 679.8 685.45 697.36 634 728.23L627.32 702.85C684.13 672.36 735.96 647.74 818.58 639.92C820.28 671.43 818.07 711.48 841.5 711.48C862.97 711.48 909.83 656.12 963.78 586.64ZM697.1 281.14L719.34 276.46L699.05 326.29L746.46 347C713.08 366.9 679.66 408.23 667.25 452.24C659.89 478.39 658.49 507.6 657.68 526.05L657.43 532.43C657.17 535.45 655.21 537.02 652.45 537.02C649.43 537.02 648.24 535.19 647.73 533.24C643.01 515.29 639.74 495.14 639.74 473.41C639.74 413.08 681.36 362.18 700.37 350.28L670.65 338.24L683.36 307.84L678.09 309.84C671.41 312.31 664.1 314.81 653.77 314.81C639.48 314.81 629.79 310.09 613.29 310.09C596.28 310.09 579.15 316.09 567.37 328C551.38 343.73 546.92 360.74 545.47 377.62C544.96 382.85 544.96 388.08 544.7 393.6C543.51 426.05 537.22 436.51 521.53 460.74C504.27 487.57 477.65 522.78 458.69 551.44C452.65 548.16 435.26 538.72 430.03 536.26C446.65 506.79 468.13 478.94 483.82 457.72C503.08 431.91 509.75 423.03 512.09 387.44C514.05 360.74 515.75 330.76 544.96 302.87C560.95 287.43 584.38 279.18 606.1 279.18C618.26 279.18 626.77 280.88 634.76 282.88C645.26 285.35 654.02 286.41 661.76 286.41C673.67 286.41 683.62 283.9 697.1 281.14ZM856.8 83.93C863.48 86.95 867.94 91.37 867.94 96.09C867.94 101.07 862.97 106.04 855.49 112.08C847.79 118.33 837.84 124.24 829.97 124.24C820.15 124.24 817.56 115.06 817.56 107.36C817.56 97.67 822.4 80.4 840.31 80.4C846.47 80.4 852.25 81.68 856.8 83.93ZM858.25 455.64L717.51 455.64L730.73 430.21L847.79 430.21L858.25 455.64ZM550.74 202.09C542.2 202.09 537.77 196.86 537.77 187.85C537.77 175.94 544.96 162.98 558.69 162.98C564.86 162.98 571.92 165.44 577.19 170.42C580.29 173.18 581.61 176.2 581.61 179.22C581.61 185.89 575.32 192.14 567.88 196.61C562.1 199.88 555.97 202.09 550.74 202.09ZM1268.57 600.63C1236.6 567.13 1210.7 531.28 1189.74 495.82C1182.81 484.17 1180.17 479.45 1180.17 475.67C1180.17 473.16 1181.74 470.95 1185.02 470.95C1187.27 470.95 1188.97 472.09 1190.93 474.6C1219.46 510.57 1252.07 546.46 1283.75 580.35C1324.19 623.29 1367.39 667.9 1407.74 704.55C1409.31 706 1409.95 707.31 1409.95 708.76C1409.95 710.84 1407.99 713.61 1405.23 713.61C1403.53 713.61 1402.21 712.8 1400.26 711.48L1386.78 702.08C1343.58 671.43 1303.01 637.28 1268.57 600.63ZM1162.27 1601.5C1158.87 1597.42 1156.74 1592.06 1156.74 1585L1156.74 1224.44C1156.74 1217.21 1158.87 1211.98 1162.27 1207.94C1166.31 1202.97 1172.22 1199.82 1180.72 1199.82L1213.42 1199.82C1222.1 1199.82 1227.84 1202.97 1231.92 1207.94C1235.32 1211.98 1237.4 1217.21 1237.4 1224.44L1237.4 1585C1237.4 1592.06 1235.32 1597.42 1231.92 1601.5C1227.84 1606.48 1222.1 1609.45 1213.42 1609.45L1180.72 1609.45C1172.22 1609.45 1166.31 1606.48 1162.27 1601.5ZM643.95 348.96C643.95 360.74 624.05 374.47 614.1 374.47C607.04 374.47 602.57 367.67 602.57 357.72C602.57 355 602.83 351.72 603.89 348.45C606.1 341.22 610.82 334.29 622.47 334.29C627.7 334.29 633.49 335.73 638.04 339.01C642.25 341.77 643.95 345.3 643.95 348.96ZM274.62 687.16C299.74 687.16 333.25 684.65 347.67 679.8L342.44 668.71C328.4 638.98 318.45 626.82 297.79 626.82C284.31 626.82 274.62 630.48 261.39 634.52C259.56 635.07 255.91 636.77 252.38 636.77C244.38 636.77 240.98 630.74 239.15 622.23L238.09 617C261.65 606.8 284.05 597.36 306.93 597.36C331.98 597.36 346.22 609.82 359.44 632.95C370.58 652.46 379.6 674.57 391.25 692.13C418.76 733.76 451.88 749.71 489.05 749.71C522.3 749.71 560.14 736.23 596.41 715.82L603.34 740.95C566.18 761.36 527.44 775.34 489.05 775.34C444.14 775.34 397.54 756 363.65 705.61C350.43 709.01 327.51 712.8 296.22 712.8C283.76 712.8 276.57 712.54 271.6 710.08C267.56 708.08 265.6 704.04 264.79 699.06L262.84 687.16L274.62 687.16Z" />
				<path id="Path 8" fill-rule="evenodd" class="shp1" d="M1537.47 1483.04L1345.15 1483.04C1347.11 1517.44 1373.81 1548.86 1415.18 1548.86C1442.82 1548.86 1461.4 1538.91 1474.37 1519.95C1478.83 1513.27 1484.83 1510 1493.76 1510L1538.11 1510C1543.89 1510 1547.16 1511.7 1549.37 1514.46C1551.63 1516.93 1552.39 1520.2 1552.39 1524.12C1552.39 1535.38 1543.38 1553.84 1531.98 1567.06C1506.05 1597.55 1460.89 1614.98 1414.93 1614.98C1322.61 1614.98 1265.04 1541.17 1265.04 1457.11C1265.04 1378.32 1318.7 1303.74 1414.42 1303.74C1466.37 1303.74 1503.84 1323.25 1528.16 1352.17C1551.88 1380.83 1563.11 1418.24 1563.11 1454.38C1563.11 1466.16 1560.9 1472.58 1556.18 1477C1552.14 1481.09 1545.97 1483.04 1537.47 1483.04ZM1483.51 1424.41C1479.98 1390.52 1453.15 1365.14 1414.54 1365.14C1375.25 1365.14 1349.32 1390.52 1345.66 1424.41L1483.51 1424.41ZM1286.22 374.21C1478.83 661.35 1563.11 869.87 1563.11 920.51C1563.11 931.26 1558.94 934.24 1552.14 934.24C1530.16 934.24 1479.98 900.99 1445.41 874.84L1444.65 875.35C1454.6 902.05 1488.23 997.09 1498.61 1025.23C1501.71 1033.74 1503.84 1040.67 1503.84 1049.17C1503.84 1057.42 1501.07 1063.16 1496.73 1067.37C1492.06 1071.79 1486.78 1074.17 1477.26 1074.17L1436.4 1074.17C1419.9 1074.17 1413.22 1078.09 1403.53 1087.4C1390.05 1100.75 1386.78 1103.77 1375.51 1114.99C1368.58 1121.67 1361.14 1124.69 1353.53 1124.69C1336.39 1124.69 1328.91 1113.67 1325.12 1093.82C1303.27 978.38 1283.24 851.92 1278.26 817.23C1277.97 815.02 1277.33 812 1277.33 809.53C1277.33 806.26 1278.78 803.37 1282.69 803.37C1287.02 803.37 1288.47 807.57 1290.3 815.02C1298.67 848.65 1330.35 969.87 1351.19 1067.63C1352.89 1075.36 1356.42 1078.34 1360.84 1078.34C1364.54 1078.34 1367 1077.32 1371.34 1072.86L1389.8 1054.15C1393.96 1049.94 1395.03 1047.22 1395.03 1042.24C1395.03 1036.76 1393.2 1029.4 1391.5 1021.28C1387.58 1004.02 1378.27 958.22 1370.28 917.49C1368.83 909.79 1368.07 907.28 1368.07 905.07C1368.07 902.56 1370.02 900.35 1372.79 900.35C1374.87 900.35 1376.83 901.54 1378.02 904.82C1384.01 923.02 1415.44 1012.52 1420.71 1028.51C1421.98 1032.42 1423.98 1035.69 1426.7 1037.9C1429.47 1039.99 1432.49 1041.18 1440.18 1041.18L1458.13 1041.18C1463.1 1041.18 1465.31 1040.29 1467.06 1038.71C1468.88 1037.14 1469.65 1034.5 1469.65 1031.48C1469.65 1027.44 1468.08 1022.98 1466.76 1018.94L1407.19 848.65C1330.86 793.03 1237.91 716.46 1155.85 627.46C1073.49 537.96 996.36 430.21 968.5 310.09C965.49 296.87 964.04 290.2 964.04 287.18C964.04 284.41 966 282.58 968.76 282.58C970.97 282.58 972.42 283.39 973.73 286.41C977.01 293.85 980.15 301.04 983.68 308.65C1036.03 424.73 1096.15 515.55 1165.25 594.08C1262.79 704.55 1383.76 794.1 1523.48 888.83L1524.25 888.32C1475.56 754.43 1388.22 582.86 1255.09 388.08C1217.89 333.52 1182.55 292.66 1152.32 261.28C1099.68 207.07 1065.49 188.62 1047.55 171.99C1021.4 148.05 998.74 115.86 985 100.43C955.03 67.05 924.62 33.8 872.92 33.8C831.55 33.8 799.87 56.68 785.45 92.82C781.16 104.09 779.71 112.34 776.18 118.88C772.1 126.58 763.73 139.55 755.73 153.54L793.58 153.54L771.21 191.38C779.97 189.42 799.06 185.21 819.39 185.21C844.77 185.21 872.41 191.89 885.21 217.27C904.85 255.5 901.32 341.52 923.6 402.62C946.1 465.42 988.4 522.78 1040.11 574.48C1041.55 575.89 1042.06 576.95 1042.06 578.65C1042.06 580.86 1040.11 583.11 1037.09 583.11L1034.33 582.18C972.42 536.26 917.18 476.18 894.65 414.78C870.41 349.47 870.41 262.69 856.04 234.03C848.43 218.59 830.78 212.85 806.16 212.85C778.65 212.85 757.99 217.57 729.03 223.82L753.78 176.97L702.84 176.97C714.11 158.51 741.49 111.91 747.48 102.13C750.25 97.67 753.27 85.63 757.18 75.68C770.4 40.99 811.14 0.68 872.92 0.68C936.83 0.68 975.69 41.24 1005.67 73.98C1019.15 88.65 1040.36 118.88 1068.26 145.71C1093.64 169.91 1183.74 221.36 1286.22 374.21ZM1371.09 33.8C1357.31 62.2 1335.58 111.91 1335.58 146.73C1335.58 163.49 1341.62 175.39 1363.09 175.39C1382.61 175.39 1416.24 164.68 1450.39 152.77C1483 141.5 1514.3 129.34 1529.73 124.62L1529.73 157.75C1516.25 161.53 1489.04 171.99 1459.32 182.2C1423.43 194.4 1385.33 206.56 1361.14 206.56C1321.72 206.56 1305.73 183.39 1305.73 152.26C1305.73 150.26 1305.99 148.05 1305.99 146.22L1301.69 146.22C1277.84 183.13 1256.11 220.55 1236.34 242.53L1215.16 219.66C1252.07 175.14 1320.4 67.43 1337.67 33.8L1371.09 33.8ZM1430.23 281.44C1430.23 285.6 1433.93 287.18 1446.35 287.18C1467.18 287.18 1499.5 280.63 1529.73 275.14L1529.73 300.4C1475.81 313.11 1443.46 313.11 1404.08 313.11C1376.06 313.11 1344.89 322.51 1310.2 336.8C1308.5 334.29 1294.21 314.13 1292 311.54C1374.06 266.77 1494.52 217.02 1563.11 191.63L1563.11 225.27C1528.96 237.56 1469.65 261.28 1436.65 275.4C1431.93 277.35 1430.23 278.93 1430.23 281.44Z" />
				<path id="Path 9" class="shp1" d="M646.97 128.28C628.21 128.28 615.8 128.03 599.56 120.58C577.44 110.38 566.18 105.91 546.66 105.91C522.72 105.91 500.82 114.55 482.92 131.04C462.34 150.01 455.92 175.39 448.48 203.16C442.7 224.76 435.77 248.31 420.46 270.17C407.49 288.62 398.05 297.64 368.63 332.33C329.72 378.42 309.31 415.59 275.38 498.29C281.04 497.65 289.03 497.1 297.79 497.1C302.25 497.1 305.78 497.1 311.52 497.39L315.73 488.59C334.7 447.77 360.38 392.67 396.22 350.28L408.55 335.73C445.46 292.41 468.38 266.77 482.62 207.88C487.6 186.91 491.81 168.21 505.8 154.73C518.51 142.57 534.5 137.34 550.74 137.34C564.48 137.34 574.68 140.74 589.61 146.99C603.08 152.77 608.06 153.96 622.47 153.96C627.32 153.96 630.98 153.54 634.25 153.28L614.99 179.22L641.18 197.67C608.31 207.32 590.92 239 585.14 253.67C584.12 256.69 583.57 258.65 583.57 260.47C583.57 262.69 584.63 264.94 587.9 264.94C591.56 264.94 594.33 262.17 599.05 256.69C614.99 237.3 627.7 224.08 686.64 205.62L644.97 174.24L676.39 128.28L646.97 128.28ZM129.96 229.05C62.52 229.05 33.87 261.54 33.87 283.39C13.71 291.64 0.74 314.01 0.74 334.54C0.74 375.66 30.72 404.83 70.52 404.83C83.74 404.83 97.22 399.6 106.53 392.54C113.46 394.88 122.22 396.32 131.41 396.32C150.37 396.32 171.59 389.65 186.51 367.92C188.72 368.18 190.55 368.18 192.81 368.18C217 368.18 237.96 352.23 249.1 331.27C251.82 326.04 252.89 322 252.89 318.98C252.89 315.83 251.44 313.37 248.42 313.37C244.64 313.37 244.13 317.03 237.15 323.32C221.72 337.43 198.04 342.66 173.8 342.66C161.89 359.97 147.35 369.11 130.47 369.11C118.18 369.11 108.49 365.71 98.54 359.16C90.54 367.92 80.59 371.58 71.03 371.58C49.17 371.58 33.87 356.4 33.87 334.29C33.87 318.98 43.69 305.12 57.55 299.89C60.02 272.63 89.23 254.18 125.62 254.18C130.22 254.18 134.94 254.48 139.91 254.99C145.4 246.23 158.62 236.79 177.33 234.32C181.28 233.77 184.26 233.52 186.51 232.45C188.72 231.31 189.79 229.05 189.79 226.59C189.79 224.5 188.98 222.5 186.77 221.1C184.81 220.04 181.54 219.53 177.71 218.59C160.32 215.32 139.66 204.6 129.15 178.41C87.53 178.41 57.04 145.03 57.04 107.62L57.04 105.11C43.13 99.62 33.87 86.4 33.87 70.71C33.87 50.04 50.07 33.55 70.77 33.55C83.19 33.55 93.95 39.54 100.75 48.73C106.53 47.03 113.21 46.47 119.46 46.47C150.37 46.47 183.49 65.99 189.79 104.09C229.46 107.62 238.73 141.25 241.36 155.24C242.68 162.47 243.83 168.46 248.42 168.46C253.4 168.46 254.59 162.98 256.16 155.49C259.18 141.5 264.41 130.24 274.87 121.35C274.87 85.38 301.96 54.21 340.22 54.21C345.96 41.5 358.68 32.74 373.86 32.74C394.52 32.74 411.02 48.73 411.02 69.9C411.02 82.36 405.28 93.07 396.22 99.62C398.05 106.81 399.5 113.1 399.5 119.14C399.5 142.31 385.64 158.64 360.38 167.14C356.98 181.17 350.94 193.85 340.99 203.16C324.49 219.27 307.74 219.27 307.74 225.78C307.74 229.35 310.2 231.56 317.05 231.56C347.67 231.56 377.64 214.55 381.3 186.15C410.51 176.2 428.2 146.73 428.2 123.31C428.2 117.31 427.65 112.08 425.05 107.11C433.17 99.37 442.44 86.14 442.44 66.5C442.44 49.49 435 32.1 421.78 19.39C410.26 8.16 393.88 0.68 374.88 0.68C347.41 0.68 329.47 15.6 319.26 30.27C289.28 30.27 250.38 63.65 250.38 111.27L246.21 111.27C243.45 94.65 226.44 83.68 212.15 82.87C200.5 48.17 174.31 18.37 131.41 18.37C126.43 18.37 120.39 18.62 115.04 19.39C102.45 7.86 88.46 0.68 68.82 0.68C31.36 0.68 0.74 30.78 0.74 68.75C0.74 92.44 11.46 108.68 31.87 123.05L31.61 127.51C31.61 157.75 64.73 205.11 113.72 205.11C113.72 212.85 123.41 223.31 134.13 225.27L134.13 229.05L129.96 229.05Z" />
				<path id="Path 10" class="shp1" d="M818.83 1551.88C805.91 1551.88 792.39 1549.42 781.41 1543.89C773.68 1540.1 767 1534.62 762.28 1527.14C758.24 1520.71 756.8 1516.17 750.5 1512.64C746.72 1510.26 742 1510 735.71 1510L701.43 1510C694.08 1510 690.42 1512.21 688.04 1515.23C685.45 1518.38 684.64 1522.71 684.64 1527.14C684.64 1538.15 688.59 1551.88 697.61 1564.3C718.57 1592.45 762.28 1614.98 818.32 1614.98C873.43 1614.98 949.75 1592.19 949.75 1518.38C949.75 1499.29 944.27 1483.04 934.06 1469.82C921.09 1453.07 902.64 1441.54 871.22 1433.42L808.63 1417.48C782.86 1410.93 770.66 1406.21 770.66 1390.26C770.66 1374.79 784.43 1362.37 816.37 1362.37C835.08 1362.37 852.25 1366.54 863.22 1378.06C872.41 1387.76 870.71 1392.73 877.89 1396.51C882.23 1398.77 887.21 1398.77 894.9 1398.77L926.07 1398.77C931.04 1398.77 934.57 1397.96 937.34 1394.94C939.55 1392.48 940.87 1388.56 940.87 1382.27C940.87 1367.86 931.55 1349.4 915.06 1335.41C892.95 1316.41 858.25 1303.74 816.37 1303.74C740.94 1303.74 691.31 1339.58 691.31 1396.77C691.31 1417.22 698.8 1433.68 710.83 1446.65C724.99 1461.83 745.02 1472.29 774.19 1479.77L837.33 1495.71C854.72 1500.18 870.15 1505.41 870.15 1520.46C870.15 1543.89 845.28 1551.88 818.83 1551.88ZM241.87 233.01C256.42 254.18 281.04 295.3 304.21 349.72C308.25 342.92 320.71 326.04 325.68 320.81C304.46 277.91 269.64 236.79 254.59 220.55L241.87 233.01ZM635.02 606.29C658.74 594.89 697.1 589.36 716.06 589.36C733.49 589.36 751.31 591.36 767.94 593.57C786.64 596.04 808.37 598.8 831.29 598.8C883.12 598.8 933.81 571.21 941.8 566.23C935.38 560.71 927.39 553.01 922.67 547.23C906.17 554.46 868.2 568.19 830.48 568.19C811.65 568.19 795.96 566.62 778.65 564.4C757.18 561.64 736.77 559.13 719.34 559.13C690.42 559.13 654.66 561.9 619.84 586.39L635.02 606.29ZM586.59 585.07L570.64 564.4C508.82 588.09 440.23 626.27 440.23 665.43C440.23 687.8 456.86 705.36 493.89 705.36C548.49 705.36 606.74 677.85 653.22 652.21L646.67 643.19C642.76 637.54 639.48 635.97 634.25 635.97C630.98 635.97 627.32 637.28 624.3 638.73C584.38 658.25 541.05 677.85 500.82 677.85C477.65 677.85 471.91 670.66 471.91 660.71C471.91 632.69 548.49 600.12 586.59 585.07ZM1116.94 1370.62C1122.85 1370.62 1127.15 1369.05 1130.42 1366.16C1134.12 1363.01 1135.69 1358.59 1135.69 1351.91L1135.69 1332.91C1135.69 1326.23 1134.12 1321.94 1130.42 1318.53C1127.15 1315.9 1122.85 1314.2 1116.94 1314.2L1067.19 1314.2L1067.19 1224.44C1067.19 1217.21 1064.86 1211.98 1061.58 1207.81C1057.5 1202.97 1051.63 1199.82 1043.13 1199.82L1011.96 1199.82C1003.46 1199.82 997.67 1202.97 993.51 1207.81C990.23 1211.98 987.98 1217.21 987.98 1224.44L987.98 1314.2L972.67 1314.2C966.93 1314.2 962.47 1315.9 959.06 1318.53C955.54 1321.94 953.96 1326.23 953.96 1332.91L953.96 1351.91C953.96 1358.59 955.54 1363.01 959.06 1366.16C962.47 1369.05 966.93 1370.62 972.67 1370.62L987.98 1370.62L987.98 1508.17C987.98 1543.38 997.67 1565.49 1015.62 1583.05C1032.11 1599.25 1053.59 1609.45 1091.18 1609.45L1114.6 1609.45C1120.34 1609.45 1124.68 1607.88 1128.08 1605.03C1131.61 1601.76 1133.82 1597.42 1133.82 1590.74L1133.82 1566.81C1133.82 1560.13 1131.61 1555.79 1128.08 1552.52C1124.68 1549.8 1120.34 1548.1 1114.6 1548.1L1111.2 1548.1C1096.41 1548.1 1086.2 1544.14 1079.27 1537.6C1071.02 1529.9 1066.81 1518.12 1066.81 1502.56L1066.81 1370.62L1116.94 1370.62ZM1535.9 1261.6C1541.68 1261.6 1545.97 1259.9 1549.37 1257.14C1552.9 1253.86 1554.6 1249.4 1554.6 1242.89L1554.6 1217.21C1554.6 1207.26 1552.65 1202.29 1549.37 1198.76C1546.36 1195.48 1541.38 1193.53 1535.9 1193.53C1531.43 1193.53 1527.01 1194.04 1519.65 1194.84L1299.74 1216.7C1293.44 1217.21 1290.3 1219.17 1288.21 1221.67C1285.58 1224.44 1284.52 1227.97 1284.52 1232.94L1284.52 1247.19C1284.52 1252.67 1285.58 1255.18 1287.66 1257.39C1290.04 1260.15 1293.7 1261.6 1298.67 1261.6L1535.9 1261.6Z" />
				<path id="Path 11" class="shp1" d="M1131.61 684.65C1090.24 771.82 1027.4 835.17 962.98 871.82C932.36 889.09 904.85 900.48 845.28 900.48L716.61 900.48C670.65 900.48 641.69 906.52 619.07 912.26C594.84 918.68 579.4 924.97 554.91 924.97C518.51 924.97 484.88 907.03 468.64 889.89L498.99 865.95L483.82 845.93C475.06 852.18 367.31 931.77 344.65 949.72L343.33 948.91C343.88 943.43 343.88 938.45 343.88 933.48C343.88 872.89 315.73 858.34 273.04 841.21L244.13 858.34C302.76 877.86 317.31 893.55 317.31 937.39C317.31 972.08 304.97 985.82 287.03 996.28C268.58 1007.03 245.66 1012.01 225.63 1012.01C217 1012.01 213.22 1013.71 210.2 1016.73C206.92 1020 205.22 1024.94 205.22 1031.91L205.22 1041.43L212.15 1041.43C249.1 1041.43 283.25 1035.69 320.71 1006.23L442.7 910.81C460.13 930.71 503.97 958.22 555.72 958.22C584.89 958.22 603.59 951.12 630.72 944.19C651.64 938.96 671.97 934.24 716.61 934.24L845.83 934.24C912.08 934.24 944.01 920.51 979.22 900.74C1055.8 857.71 1121.15 784.91 1158.06 701.53C1148.37 695.41 1139.35 689.88 1131.61 684.65ZM1.89 954.14L11.84 954.14C32.42 954.14 34.89 941.72 34.89 929.95C34.89 921.95 34.63 912.81 34.63 902.99C34.89 880.07 35.82 859.66 72.73 843.16C87.53 836.49 160.58 806.77 214.92 783.59C230.9 776.79 245.66 771.05 262.33 771.05C280.78 771.05 301.96 778.92 328.4 794.73C350.68 807.96 374.11 825.77 392.57 846.44L416 828.49C395.84 804.81 368.07 783.59 340.22 767.14C312.46 750.64 287.58 740.95 266.75 740.95C257.61 740.95 250.12 742.65 243.83 744.22C236.39 746.18 229.46 748.39 220.66 748.39C210.45 748.39 201.95 745.92 189.53 731.51C184.81 726.28 155.09 692.52 148.8 682.57C145.65 677.85 140.17 668.45 140.17 657.44C140.17 652.72 141.06 647.23 143.82 642.26C169.33 662.16 201.18 674.32 239.66 678.91L234.43 652.72C179.03 638.22 120.14 589.36 120.14 557.98C120.14 551.44 121.71 546.72 124.18 540.98C145.65 560.71 196.21 581.41 223.42 581.41C238.35 581.41 250.38 576.44 262.03 571.72C273.04 567.38 284.05 563.09 298.98 563.09C334.19 563.09 377.64 580.09 416 596.34C418.25 597.1 420.72 597.74 423.22 597.74C429.22 597.74 433.94 594.89 436.96 589.11L441.93 580.09C399.75 555.6 332.61 529.33 297.53 529.33C281.55 529.33 269.9 533.49 258.88 537.96C246.59 542.93 235.88 548.16 224.48 548.16C196.72 548.16 125.24 520.52 125.24 493.82C125.24 462.44 238.86 450.41 251.19 450.41L262.58 424.73C180.09 424.73 82.04 453.64 82.04 491.87C82.04 503.01 88.46 508.49 88.46 518.57C88.46 532.43 82.04 541.74 82.04 557.18C82.04 567.38 88.16 580.35 95.26 591.62C102.96 603.52 112.15 611.26 112.15 621.17C112.15 628.52 107.17 637.28 107.17 654.67C107.17 691.88 128.39 714.5 169.63 758.89L178.01 767.65C143.82 780.87 80.08 808.47 65.29 814.76C13.71 836.23 0.74 862.38 0.74 903.75C0.74 919.74 0.74 937.94 1.89 954.14Z" />
				<path id="Path 12" fill-rule="evenodd" class="shp1" d="M357.36 100.13C340.48 126.32 307.74 178.16 297.53 193.34L282.61 184.19C292.3 161.28 304.08 140.48 318.2 124.75C328.02 113.36 337.46 104.34 347.92 95.16C350.43 93.33 351.7 91.63 354.34 91.63C356.98 91.63 358.93 93.88 358.93 96.09C358.93 97.16 358.42 98.6 357.36 100.13Z" />
				<path id="Path 13" class="shp1" d="M0.74 1581.35C0.74 1590.49 2.95 1595.72 6.74 1600.44C11.46 1605.92 18.13 1609.45 28.64 1609.45L54.15 1609.45C64.73 1609.45 71.28 1605.92 76 1600.44C79.79 1595.72 82.04 1590.49 82.04 1581.35L82.04 1325.21L83.36 1325.21C83.36 1325.21 225.63 1577.01 231.41 1586.32C239.41 1599.5 252.89 1609.45 272.11 1609.45L315.99 1609.45C326.45 1609.45 333 1605.92 337.72 1600.44C341.63 1595.72 343.75 1590.49 343.75 1581.35L343.75 1261.6L919.39 1261.6C925.3 1261.6 929.6 1259.9 932.87 1257.14C936.53 1253.86 938.23 1249.4 938.23 1242.89L938.23 1218.53C938.23 1211.98 936.53 1207.51 932.87 1204.24C929.6 1201.52 925.3 1199.82 919.39 1199.82L291.24 1199.82C280.78 1199.82 274.1 1203.48 269.39 1208.96C265.6 1213.68 263.35 1218.78 263.35 1227.97L263.35 1478.07L261.9 1478.07C261.9 1478.07 124.99 1233.96 118.44 1222.74C113.72 1214.74 108.49 1209.22 101.56 1205.05C94.71 1201.26 87.53 1198.76 73.79 1198.76L28.64 1198.76C18.13 1198.76 11.46 1202.29 6.74 1207.81C2.95 1212.49 0.74 1217.76 0.74 1226.9L0.74 1581.35Z" />
				<path id="Path 14" fill-rule="evenodd" class="shp1" d="M643.27 1483.04L451.63 1483.04C453.46 1517.44 480.29 1548.86 521.53 1548.86C549.04 1548.86 567.88 1538.91 580.85 1519.95C585.14 1513.27 591.31 1510 600.07 1510L644.46 1510C650.24 1510 653.51 1511.7 655.72 1514.46C657.94 1516.93 658.74 1520.2 658.74 1524.12C658.74 1535.38 649.69 1553.84 638.29 1567.06C612.52 1597.55 567.37 1614.98 521.28 1614.98C428.96 1614.98 371.35 1541.17 371.35 1457.11C371.35 1378.32 425.05 1303.74 520.72 1303.74C572.73 1303.74 609.76 1323.25 634 1352.17C657.68 1380.83 668.95 1418.24 668.95 1454.38C668.95 1466.16 666.74 1472.58 662.02 1477C657.94 1481.09 651.94 1483.04 643.27 1483.04ZM589.86 1424.41C586.33 1390.52 559.63 1365.14 521.02 1365.14C481.6 1365.14 455.67 1390.52 452.14 1424.41L589.86 1424.41ZM101.81 314.13C135.83 287.81 165.55 277.35 206.54 270.42L211.52 286.92L110.7 321.06C107.17 322.51 105.47 323.32 103.51 323.32C100.49 323.32 99.18 320.81 99.18 318.85C99.18 317.03 99.98 315.83 101.81 314.13ZM198.29 158.94L186.77 172.12C172.48 160.21 126.13 121.35 102.2 101.07C99.69 98.86 99.18 97.41 99.18 95.71C99.18 93.88 100.49 91.63 103.51 91.63L107.17 92.44C127.45 100.81 144.89 110.38 160.32 122.29C173.29 132.11 185.96 144.27 198.29 158.94Z" />
			</g>
		</g>
	</g>
</svg>