<svg version="1.2" baseProfile="tiny-ps" xmlns="http://www.w3.org/2000/svg" viewBox="0 0 1590 132" width="1590" height="132">
	<title>Screenshot 2021-10-01 at 09-svg</title>
	<style>
		tspan { white-space:pre }
		.shp0 { fill: #00007b } 
	</style>
	<g id="#00007bff">
		<path id="Layer" fill-rule="evenodd" class="shp0" d="M0.45 0.15C19.25 0.17 38.05 0.16 56.85 0.16C66.82 0.14 76.95 0.59 86.52 3.61C92.09 5.27 97.46 7.94 101.77 11.9C109.67 19.18 111.51 31.57 107.54 41.32C106.13 45.09 103.15 47.88 100.26 50.52C95.07 54.77 88.8 57.61 82.25 58.92C82.23 59.38 82.19 60.3 82.18 60.76C87.42 61.82 92.56 63.49 97.37 65.84C104.52 69.56 110.99 75.25 114.02 82.89C116.7 90.36 116.92 99.03 113.54 106.31C110.43 113.71 103.99 119.24 96.95 122.77C86.12 128.75 73.47 130.06 61.3 130.23C41.03 130.24 20.75 130.25 0.49 130.23C0.47 128.58 0.47 126.93 0.55 125.29C5.35 124.94 11.08 124.91 14.47 120.9C17.17 118.07 17.28 113.89 17.4 110.21C17.4 80.08 17.4 49.96 17.4 19.84C17.4 15.76 16.91 11.01 13.44 8.32C9.77 5.51 4.89 5.4 0.48 5.07C0.48 3.43 0.48 1.79 0.45 0.15ZM50.01 8.27C49.74 8.65 49.2 9.43 48.93 9.81C48.5 11.39 48.03 12.99 48.05 14.64C48.04 29.26 48.06 43.89 48.05 58.51C55.33 58.37 63.03 58.02 69.55 54.42C74.82 51.4 76.66 45.14 77.5 39.49C78.31 32.21 78.06 24.66 75.76 17.65C74.47 14.62 73.27 11.29 70.46 9.32C66.47 6.11 61.03 5.85 56.14 6.11C53.91 6.16 51.82 7.02 50.01 8.27ZM48.04 112.12C47.99 114.93 48.2 117.95 49.81 120.36C51.62 122.98 55.01 123.86 58.02 123.96C64.11 123.95 70.75 123.11 75.43 118.82C79.8 114.67 81.66 108.61 82.51 102.8C83.36 94.67 83.25 86.14 79.97 78.52C78.27 74.2 74.97 70.7 71.09 68.25C64.02 64.73 55.91 64.24 48.13 64.4C47.94 80.3 48.12 96.21 48.04 112.12Z" />
		<path id="Layer" class="shp0" d="M725.21 0.15C746.83 0.17 768.46 0.16 790.08 0.16C790.04 1.79 790.04 3.43 790.05 5.07C786.14 5.34 782.13 5.66 778.47 7.16C773.98 9.96 772.7 15.55 772.96 20.52C772.96 33.19 773 45.85 772.95 58.52C788.17 58.41 803.4 58.5 818.63 58.47C818.63 45.39 818.63 32.3 818.63 19.21C818.6 15.88 818.1 12.35 816.09 9.62C812.57 5.35 806.52 5.73 801.56 4.97C801.54 3.37 801.54 1.77 801.56 0.18C823.33 0.12 845.11 0.21 866.89 0.13C866.83 1.78 866.82 3.42 866.84 5.07C862.14 5.58 856.77 5.72 853.18 9.24C850.69 11.91 850.23 15.69 850.23 19.18C850.24 47.82 850.23 76.45 850.23 105.09C850.29 109.73 849.76 114.56 851.63 118.95C854.56 124.43 861.31 125.1 866.84 125.3C866.83 126.92 866.83 128.54 866.85 130.15C845.08 130.37 823.31 130.15 801.55 130.26C801.54 128.59 801.54 126.93 801.53 125.25C806.32 124.94 811.95 124.96 815.52 121.19C818.06 118.7 818.49 114.92 818.61 111.55C818.64 96.85 818.62 82.14 818.63 67.44C803.43 67.45 788.23 67.44 773.03 67.44C772.89 79.99 773.01 92.55 772.97 105.11C773.04 109.73 772.51 114.56 774.37 118.93C777.38 124.58 784.33 125.09 789.98 125.29C790.05 126.93 790.06 128.58 790.04 130.23C768.45 130.25 746.85 130.24 725.26 130.23C725.24 128.58 725.23 126.93 725.19 125.28C728.88 125.14 732.59 124.62 736.03 123.22C739.68 120.83 741.51 116.47 741.36 112.18C741.36 80.97 741.37 49.76 741.35 18.54C741.43 14.27 740.04 9.37 736.02 7.25C732.57 5.93 728.88 5.43 725.24 5.06C725.24 3.42 725.23 1.79 725.21 0.15Z" />
		<path id="Layer" class="shp0" d="M407.84 54.68C409 54.68 410.16 54.69 411.32 54.7C411.33 62.68 411.34 70.66 411.32 78.64C410.23 78.63 409.13 78.62 408.04 78.62C406.26 72.47 403.07 66.58 398.13 62.42C394.23 59.22 388.88 58.01 383.97 59.02C380.23 59.81 376.8 62.69 375.98 66.52C375.6 69.2 375.67 72.18 377.25 74.5C378.4 76.32 380.3 77.46 382.09 78.58C388.45 82.44 395.3 85.38 401.87 88.86C407.29 91.82 412.13 96.55 413.73 102.7C417.3 114.07 409.65 127.45 398.2 130.4C390.04 132.62 381.14 132.22 373.27 129.05C371.49 128.49 369.4 127.46 367.63 128.56C366.75 129.44 366.45 130.69 366.01 131.82C364.85 131.82 363.69 131.81 362.53 131.81C362.46 122.75 362.51 113.69 362.51 104.64C363.69 104.6 364.89 104.59 366.08 104.62C367.64 111.35 370.04 118.43 375.5 123.01C380.26 127.25 387.19 128.69 393.29 126.94C399.49 125.32 402.97 117.51 400.33 111.72C399.36 109.39 397.4 107.67 395.28 106.41C387.1 101.49 377.79 98.42 370.43 92.18C366.63 89.05 363.94 84.47 363.55 79.51C362.49 72.77 365.23 65.83 369.8 60.94C373.06 57.39 377.79 55.61 382.49 55.09C387.54 54.65 392.7 54.97 397.55 56.48C400 57.11 402.36 58.26 404.91 58.37C406.85 58.3 407.27 56.14 407.84 54.68Z" />
		<path id="Layer" fill-rule="evenodd" class="shp0" d="M886.55 106.49C893.46 89.43 900.31 72.34 907.27 55.31C908.39 55.31 909.52 55.31 910.66 55.3C918.97 75 927.3 94.69 935.66 114.37C937.26 117.87 938.69 121.5 940.92 124.68C942.17 126.43 944.35 127.03 946.39 127.25C946.41 128.21 946.41 129.17 946.44 130.14C937.46 130.21 928.48 130.15 919.5 130.17C916.66 130.12 913.81 130.33 910.99 129.98C911 129.04 911.02 128.1 911.05 127.17C913.73 126.93 916.5 126.93 919.01 125.79C919.49 124.52 920.02 123.15 919.59 121.78C918.54 117.34 916.41 113.27 914.78 109.03C906.82 109.02 898.85 109.05 890.89 109.02C889.43 112.96 887.83 116.86 886.78 120.93C886.41 122.38 886.03 124.22 887.38 125.29C889.47 127.08 892.42 126.97 895.01 127.17C894.99 128.17 894.98 129.16 895 130.16C887.54 130.18 880.08 130.17 872.63 130.16C872.6 129.18 872.6 128.21 872.6 127.23C875.28 126.82 877.9 125.48 879.28 123.04C882.32 117.82 884.17 112.02 886.55 106.49ZM902.41 79.33C899.08 87.67 895.9 96.08 892.61 104.43C899.4 104.35 906.21 104.39 913.01 104.41C909.37 96.1 906.35 87.49 902.41 79.33Z" />
		<path id="Layer" fill-rule="evenodd" class="shp0" d="M1132.92 55.31C1134.06 55.31 1135.22 55.31 1136.39 55.3C1144.55 74.47 1152.62 93.68 1160.77 112.85C1162.52 116.78 1164.11 120.83 1166.5 124.43C1167.72 126.34 1170.02 127 1172.15 127.26C1172.14 128.23 1172.13 129.19 1172.16 130.16C1160.42 130.19 1148.68 130.16 1136.95 130.17C1136.9 129.17 1136.87 128.17 1136.86 127.18C1139.39 126.84 1142.14 127.09 1144.47 125.85C1146.08 124.11 1145.38 121.61 1144.76 119.61C1143.57 115.99 1141.93 112.54 1140.53 109C1132.56 109.05 1124.58 109.03 1116.61 109.02C1115.2 113.26 1113.27 117.35 1112.39 121.75C1112 123.13 1112.24 124.82 1113.54 125.62C1115.68 127 1118.33 127.03 1120.79 127.17C1120.77 128.16 1120.77 129.15 1120.79 130.14C1113.33 130.19 1105.86 130.18 1098.4 130.15C1098.38 129.16 1098.38 128.17 1098.39 127.19C1102.29 126.87 1105.14 123.82 1106.51 120.34C1111.73 108.52 1116.27 96.4 1121.22 84.46C1125.1 74.73 1129.16 65.08 1132.92 55.31ZM1128.27 79.22C1124.83 87.55 1121.73 96.01 1118.38 104.37C1125.18 104.42 1132 104.38 1138.82 104.39C1135.15 96.07 1131.98 87.52 1128.27 79.22Z" />
		<path id="Layer" fill-rule="evenodd" class="shp0" d="M1294.85 55.31C1295.97 55.31 1297.1 55.31 1298.26 55.29C1303.91 68.75 1309.62 82.19 1315.31 95.62C1319.34 104.79 1322.77 114.26 1327.47 123.11C1328.65 125.66 1331.24 127.14 1333.99 127.25C1334 128.21 1333.99 129.17 1334.04 130.14C1322.22 130.09 1310.39 130.39 1298.59 129.99C1298.6 129.05 1298.61 128.1 1298.65 127.17C1301.32 126.93 1304.11 126.93 1306.6 125.78C1307.09 124.52 1307.59 123.15 1307.18 121.78C1306.14 117.33 1304 113.27 1302.38 109.03C1294.41 109.02 1286.44 109.04 1278.49 109.02C1276.91 113.4 1274.98 117.7 1274.1 122.31C1273.71 123.66 1274.38 125.04 1275.56 125.76C1277.67 127.03 1280.21 127.01 1282.61 127.17C1282.58 128.17 1282.57 129.17 1282.59 130.17C1275.13 130.17 1267.67 130.18 1260.22 130.16C1260.19 129.18 1260.18 128.21 1260.19 127.23C1262.88 126.81 1265.51 125.46 1266.89 123C1269.91 117.79 1271.77 112.01 1274.14 106.5C1281.04 89.44 1287.91 72.36 1294.85 55.31ZM1290 79.31C1286.69 87.66 1283.49 96.07 1280.21 104.43C1287.01 104.36 1293.8 104.39 1300.61 104.41C1296.96 96.09 1293.93 87.49 1290 79.31Z" />
		<path id="Layer" class="shp0" d="M126.93 56.68C147.75 56.64 168.57 56.65 189.38 56.68C189.4 64.12 189.42 71.56 189.37 79C188.39 78.99 187.4 78.98 186.43 78.97C185.39 74.2 184.01 69.19 180.54 65.58C176.74 61.87 171.13 61.34 166.1 60.89C162.83 60.82 159.45 60.48 156.27 61.41C154.38 62.03 154.35 64.36 154.29 66.01C154.26 74.18 154.31 82.35 154.27 90.53C158.39 90.41 163.07 90.29 166.27 87.29C169.41 83.76 170.4 78.94 171.38 74.45C172.44 74.47 173.48 74.5 174.54 74.52C174.61 86.79 174.51 99.05 174.59 111.32C173.53 111.45 172.47 111.55 171.41 111.64C170.62 106.96 169.86 101.83 166.45 98.27C163.23 95.14 158.5 94.94 154.29 94.62C154.29 103.24 154.27 111.85 154.29 120.46C154.22 122.55 154.85 125.21 157.21 125.75C161.52 126.83 166.06 126.43 170.41 125.77C175.07 124.91 179.73 123.08 183.17 119.72C186.72 116.23 189.24 111.85 191.3 107.36C192.42 107.36 193.54 107.37 194.66 107.38C193.49 114.96 191.61 122.41 190.47 129.99C189.34 130.1 188.2 130.19 187.06 130.19C167.02 130.14 146.97 130.21 126.93 130.15C126.92 129.15 126.92 128.16 126.92 127.17C129.58 126.84 132.67 126.97 134.68 124.91C136.2 123.42 136.45 121.2 136.4 119.19C136.38 101.74 136.43 84.3 136.38 66.85C136.47 64.71 135.57 62.46 133.69 61.32C131.65 60.12 129.21 60.04 126.92 59.89C126.92 58.82 126.93 57.75 126.93 56.68Z" />
		<path id="Layer" fill-rule="evenodd" class="shp0" d="M198.88 56.68C211.26 56.67 223.63 56.63 236.02 56.7C243.65 57.08 251.87 57.82 258.18 62.61C266.59 68.79 266.29 83.01 258.3 89.39C255.24 92 251.53 93.69 247.67 94.66C254.7 104.77 261.83 114.8 268.9 124.87C269.87 126.53 271.72 127.16 273.51 127.39C273.51 128.32 273.5 129.23 273.5 130.15C266.01 130.19 258.52 130.16 251.03 130.17C243.65 119.11 236.36 107.99 228.98 96.94C228.47 95.91 227.14 96.49 226.25 96.28C226.32 103.7 226.24 111.13 226.29 118.56C226.27 120.75 226.62 123.11 228.04 124.86C230.03 126.82 233.03 126.8 235.62 127.16C235.6 128.16 235.59 129.15 235.58 130.15C223.35 130.19 211.11 130.17 198.88 130.16C198.87 129.16 198.87 128.16 198.86 127.17C201.24 126.82 203.85 126.79 205.9 125.37C207.97 123.78 208.07 120.91 208.25 118.54C208.29 102.52 208.25 86.51 208.28 70.5C208.24 68.02 208.28 65.38 207.11 63.14C205.63 60.13 201.72 60.26 198.87 59.9C198.87 58.82 198.88 57.75 198.88 56.68ZM229.12 61.16C227.41 61.33 226.14 62.98 226.3 64.67C226.24 73.98 226.3 83.29 226.27 92.61C229.94 92.43 233.65 92.14 237.22 91.16C239.57 90.47 242.04 89.39 243.3 87.15C245.52 83.29 245.5 78.66 245.36 74.35C245.13 70.33 244.21 65.92 240.93 63.25C237.64 60.64 233.09 60.39 229.12 61.16Z" />
		<path id="Layer" class="shp0" d="M277.78 56.68C290.04 56.66 302.29 56.64 314.55 56.68C314.55 57.75 314.55 58.81 314.56 59.88C312.09 60.1 309.51 60.38 307.36 61.71C305.31 63.31 305.3 66.2 305.1 68.56C305.08 76.43 305.1 84.31 305.09 92.18C313.32 83.77 321.68 75.47 329.85 67C331.13 65.76 332.08 64.01 331.57 62.17C330.59 60.28 328.18 60.54 326.4 60.12C325.16 60.04 323.93 59.98 322.69 59.92C322.69 58.84 322.69 57.75 322.7 56.67C333.22 56.66 343.73 56.64 354.24 56.68C354.26 57.74 354.28 58.8 354.3 59.86C348.88 60.35 343.43 61.98 339.18 65.51C332.3 71.25 326.14 77.78 319.8 84.1C323.91 89.9 328.68 95.22 333.04 100.84C339.55 108.87 345.98 116.96 352.51 124.96C353.71 126.66 355.84 126.91 357.73 127.21C357.72 128.19 357.71 129.17 357.71 130.15C345.52 130.17 333.32 130.19 321.12 130.15C321.11 129.17 321.1 128.19 321.1 127.21C323.77 127.07 326.46 127.03 329.06 126.36C329.23 126.02 329.55 125.32 329.71 124.98C328.8 122.39 326.89 120.38 325.24 118.26C319.37 110.88 313.47 103.53 307.63 96.13C306.77 96.96 305.92 97.8 305.09 98.63C305.1 105.7 305.08 112.76 305.09 119.83C305.07 122.13 305.98 124.6 308.03 125.82C309.97 126.84 312.21 126.91 314.34 127.18C314.33 128.17 314.32 129.17 314.32 130.16C302.15 130.18 289.99 130.17 277.82 130.17C277.76 129.18 277.71 128.19 277.68 127.2C279.74 126.93 281.92 126.9 283.84 126.02C286.03 124.82 287.17 122.23 286.99 119.79C287 102.29 286.99 84.78 287 67.28C287.1 65.06 286.35 62.58 284.41 61.32C282.38 60.15 279.96 60.07 277.68 59.86C277.71 58.79 277.74 57.73 277.78 56.68Z" />
		<path id="Layer" class="shp0" d="M420.8 56.7C433.1 56.63 445.39 56.66 457.69 56.68C457.7 57.75 457.7 58.82 457.7 59.9C455.3 60.03 452.75 60.1 450.66 61.41C448.76 62.68 448.04 65.08 448.1 67.27C448.07 74.73 448.13 82.18 448.07 89.64C456.51 89.58 464.95 89.61 473.39 89.63C473.35 82.17 473.41 74.71 473.37 67.26C473.37 65.08 472.68 62.66 470.79 61.39C468.67 60.14 466.13 60.03 463.74 59.9C463.73 58.82 463.73 57.75 463.75 56.68C476.09 56.64 488.45 56.65 500.8 56.68C500.79 57.75 500.79 58.82 500.81 59.89C498.49 60 496.1 60.28 494.05 61.44C492.17 62.72 491.45 65.12 491.51 67.3C491.51 84.82 491.51 102.34 491.52 119.86C491.48 122.04 492.33 124.36 494.18 125.62C496.16 126.87 498.56 126.91 500.81 127.18C500.79 128.17 500.79 129.16 500.79 130.15C488.44 130.17 476.09 130.19 463.74 130.15C463.73 129.16 463.72 128.17 463.71 127.19C465.95 126.94 468.31 126.89 470.36 125.83C472.44 124.66 473.37 122.15 473.37 119.86C473.4 111.58 473.35 103.31 473.39 95.03C464.95 95.04 456.52 95.07 448.08 95.01C448.12 103.28 448.07 111.55 448.1 119.81C448.03 122.14 448.96 124.66 451.07 125.85C453.12 126.91 455.48 126.95 457.73 127.19C457.72 128.17 457.7 129.16 457.7 130.15C445.38 130.17 433.05 130.19 420.74 130.15C420.74 129.15 420.75 128.17 420.78 127.19C422.98 126.9 425.35 126.85 427.3 125.65C429.56 124.08 430 121.11 429.98 118.55C429.96 101.67 429.99 84.77 429.96 67.89C429.89 65.54 429.5 62.75 427.35 61.37C425.32 60.27 422.95 60.16 420.72 59.82C420.73 58.78 420.76 57.73 420.8 56.7Z" />
		<path id="Layer" class="shp0" d="M504.57 56.66C517.23 56.67 529.89 56.64 542.55 56.68C542.54 57.75 542.54 58.83 542.55 59.91C539.97 60.03 537.2 59.99 534.96 61.42C532.91 62.87 532.5 65.58 532.44 67.92C532.44 85.01 532.45 102.1 532.44 119.19C532.46 121.41 532.82 123.98 534.74 125.4C537.04 126.89 539.9 127.02 542.57 127.17C542.55 128.17 542.54 129.16 542.55 130.15C529.89 130.17 517.23 130.19 504.57 130.15C504.57 129.14 504.57 128.14 504.57 127.14C506.83 127 509.2 126.92 511.27 125.88C513.37 124.7 514.36 122.17 514.31 119.84C514.32 102.33 514.32 84.82 514.31 67.31C514.41 65.07 513.6 62.6 511.65 61.34C509.53 60.05 506.97 60.02 504.57 59.91C504.57 58.83 504.57 57.74 504.57 56.66Z" />
		<path id="Layer" fill-rule="evenodd" class="shp0" d="M546.49 56.68C558.96 56.66 571.45 56.63 583.93 56.7C591.55 57.11 599.8 57.87 606.03 62.8C614.14 69.01 613.84 82.79 606.13 89.21C603.01 91.9 599.21 93.69 595.23 94.67C602.45 104.81 609.54 115.04 616.76 125.18C617.69 126.71 619.49 127.12 621.14 127.39C621.13 128.31 621.12 129.23 621.13 130.15C613.64 130.21 606.16 130.12 598.68 130.19C591.19 118.94 583.69 107.7 576.31 96.37C575.48 96.35 574.66 96.33 573.85 96.32C573.88 103.73 573.78 111.14 573.89 118.54C574.02 121.06 574.27 124.11 576.58 125.62C578.61 126.78 580.99 126.88 583.25 127.17C583.23 128.17 583.22 129.17 583.22 130.17C570.97 130.16 558.73 130.2 546.48 130.14C546.47 129.15 546.47 128.16 546.47 127.17C548.71 126.89 551.04 126.72 553.08 125.67C555.28 124.38 555.7 121.56 555.87 119.23C555.91 102.33 555.87 85.42 555.88 68.51C555.82 66.08 555.43 63.3 553.53 61.6C551.46 60.23 548.86 60.14 546.47 59.87C546.47 58.81 546.47 57.75 546.49 56.68ZM574.68 62.23C573.76 63.5 573.88 65.15 573.84 66.65C573.86 75.3 573.83 83.94 573.85 92.59C578.56 92.38 583.45 92.07 587.78 90.03C591.26 88.38 592.45 84.3 592.89 80.76C593.1 75.62 593.44 70 590.55 65.49C588.29 61.89 583.81 60.54 579.78 60.8C578.04 60.94 575.99 60.89 574.68 62.23Z" />
		<path id="Layer" class="shp0" d="M624.37 56.68C645.19 56.64 666.01 56.65 686.83 56.68C686.84 64.12 686.87 71.56 686.81 79C685.82 78.99 684.84 78.98 683.87 78.97C682.6 73 680.56 66.01 674.58 63.21C668.64 60.72 662 60.57 655.67 60.97C653.58 60.95 651.63 62.41 651.81 64.67C651.61 73.28 651.79 81.9 651.72 90.52C655.83 90.42 660.5 90.29 663.69 87.31C666.86 83.79 667.84 78.94 668.83 74.45C669.88 74.47 670.92 74.5 671.98 74.52C672.03 86.8 671.98 99.08 672.01 111.36C670.95 111.44 669.9 111.53 668.86 111.62C668.06 106.95 667.3 101.81 663.87 98.26C660.66 95.14 655.93 94.93 651.73 94.62C651.75 103.44 651.67 112.26 651.77 121.07C651.66 123.23 652.83 125.62 655.18 125.89C661.61 127.01 668.43 126.3 674.46 123.79C681.48 120.87 685.68 113.98 688.75 107.36C689.86 107.36 690.97 107.37 692.1 107.38C690.93 114.96 689.05 122.41 687.91 129.99C681.28 130.4 674.61 130.06 667.97 130.17C653.44 130.15 638.9 130.21 624.37 130.14C624.36 129.15 624.36 128.16 624.37 127.17C627.01 126.84 630.09 126.96 632.11 124.92C633.64 123.43 633.91 121.2 633.84 119.17C633.82 101.73 633.86 84.29 633.82 66.85C633.91 64.69 633 62.45 631.12 61.3C629.07 60.12 626.65 60.04 624.37 59.89C624.36 58.82 624.36 57.75 624.37 56.68Z" />
		<path id="Layer" class="shp0" d="M943.43 56.68C965.21 56.64 986.97 56.67 1008.74 56.66C1008.5 63.19 1009.18 69.7 1009.06 76.23C1009.11 77.19 1008.92 78.14 1008.62 79.07C1007.55 79.02 1006.49 78.99 1005.44 78.96C1004.71 73.85 1003.12 68.48 999.16 64.92C995.35 61.45 989.92 60.9 985 60.73C985.03 79.71 984.98 98.69 985.01 117.68C985.05 120.37 985.17 123.59 987.42 125.46C989.84 127.01 992.85 126.99 995.63 127.17C995.61 128.16 995.61 129.15 995.62 130.15C982.7 130.19 969.79 130.16 956.87 130.17C956.84 129.17 956.83 128.17 956.84 127.19C959.96 126.87 964.09 127.16 966 124.14C967.52 121.26 967.33 117.85 967.37 114.7C967.36 96.7 967.37 78.71 967.36 60.71C961.78 60.85 955.53 61.78 951.65 66.23C948.39 69.71 947.47 74.52 946.69 79.05C945.58 79.02 944.49 78.99 943.4 78.96C943.33 71.54 943.39 64.11 943.43 56.68Z" />
		<path id="Layer" class="shp0" d="M1014.5 56.7C1026.81 56.63 1039.13 56.65 1051.44 56.69C1051.44 57.75 1051.44 58.82 1051.46 59.88C1049.23 60.03 1046.93 60.09 1044.91 61.1C1042.89 62.1 1041.82 64.46 1041.83 66.65C1041.76 74.3 1041.9 81.97 1041.76 89.64C1050.2 89.59 1058.65 89.59 1067.09 89.63C1067.13 82.61 1067.09 75.59 1067.11 68.57C1067.06 66.15 1066.95 63.36 1064.94 61.68C1062.79 60.14 1060.02 60.08 1057.49 59.88C1057.47 58.82 1057.48 57.75 1057.5 56.7C1069.85 56.63 1082.19 56.65 1094.53 56.68C1094.53 57.75 1094.53 58.81 1094.55 59.87C1092.27 60.05 1089.92 60.26 1087.89 61.37C1085.93 62.61 1085.13 65.08 1085.22 67.31C1085.22 84.81 1085.22 102.32 1085.23 119.82C1085.17 122.05 1086.07 124.43 1087.99 125.69C1089.95 126.87 1092.31 126.93 1094.54 127.17C1094.53 128.16 1094.51 129.15 1094.54 130.14C1082.2 130.2 1069.86 130.17 1057.52 130.15C1057.48 129.17 1057.47 128.19 1057.46 127.21C1059.94 126.85 1062.73 126.94 1064.8 125.33C1066.83 123.73 1067.08 120.96 1067.11 118.57C1067.09 110.72 1067.12 102.87 1067.09 95.02C1058.66 95.06 1050.22 95.05 1041.79 95.02C1041.87 103.51 1041.76 111.99 1041.84 120.48C1041.81 122.98 1043.39 125.55 1045.83 126.32C1047.64 126.91 1049.57 127 1051.47 127.19C1051.44 128.17 1051.44 129.17 1051.44 130.16C1039.13 130.17 1026.81 130.18 1014.5 130.15C1014.48 129.17 1014.47 128.19 1014.47 127.21C1017.07 126.8 1020.19 126.9 1022.04 124.7C1023.54 123.04 1023.53 120.66 1023.7 118.56C1023.72 105.94 1023.7 93.32 1023.71 80.7C1023.5 75.25 1024.2 69.72 1023.18 64.33C1022.22 60.49 1017.72 60.19 1014.49 59.86C1014.48 58.8 1014.48 57.75 1014.5 56.7Z" />
		<path id="Layer" class="shp0" d="M1164.45 56.57C1175.14 56.57 1185.83 56.55 1196.52 56.58C1196.52 57.6 1196.51 58.62 1196.54 59.64C1194.35 60.1 1191.4 59.78 1190.15 62.04C1189.36 64.08 1190.02 66.28 1190.67 68.25C1193.68 77.35 1196.68 86.46 1199.68 95.57C1200.94 98.81 1201.51 102.38 1203.26 105.41C1207.36 95.14 1211.31 84.81 1215.36 74.53C1216.11 72.77 1214.75 71 1214.36 69.31C1213.27 66.54 1212.63 63.32 1210.2 61.35C1208.52 59.9 1206.17 59.94 1204.11 59.63C1204.12 58.62 1204.15 57.61 1204.2 56.59C1215.53 56.54 1226.86 56.58 1238.19 56.57C1238.18 57.59 1238.18 58.62 1238.2 59.65C1235.66 60.02 1232.75 59.81 1230.74 61.67C1230.14 64.35 1231.28 66.94 1232.02 69.47C1235.81 81.14 1239.48 92.87 1243.35 104.52C1247.44 92.89 1251.12 81.11 1255.05 69.42C1255.75 67.09 1256.6 64.39 1255.47 62.06C1254.06 59.7 1250.91 59.96 1248.58 59.64C1248.58 58.62 1248.59 57.62 1248.64 56.61C1255.32 56.52 1262.01 56.59 1268.69 56.57C1268.67 57.59 1268.67 58.61 1268.69 59.62C1267.15 60.03 1265.49 60.34 1264.26 61.42C1262.57 62.89 1261.69 65.01 1260.99 67.07C1253.84 88.66 1246.72 110.26 1239.56 131.86C1238.48 131.86 1237.41 131.86 1236.36 131.87C1230.26 114.88 1224.26 97.85 1218.12 80.89C1211.19 97.72 1204.82 114.88 1198.13 131.85C1196.99 131.85 1195.86 131.86 1194.75 131.87C1187.18 110.21 1179.62 88.54 1172.05 66.88C1171.38 65.12 1170.76 63.27 1169.58 61.77C1168.29 60.29 1166.22 59.98 1164.42 59.53C1164.41 58.54 1164.42 57.55 1164.45 56.57Z" />
		<path id="Layer" class="shp0" d="M1327.83 56.69C1340 56.63 1352.17 56.65 1364.35 56.68C1364.34 57.75 1364.34 58.83 1364.36 59.91C1361.6 60.15 1358.54 59.83 1356.08 61.29C1355.01 63.54 1356.57 65.88 1357.5 67.9C1362 76.47 1366.31 85.15 1370.95 93.65C1373.98 88.92 1376.8 84.05 1379.77 79.28C1382.31 74.96 1385.31 70.77 1386.7 65.89C1386.81 64.51 1387.1 62.84 1386 61.78C1384.91 60.6 1383.23 60.44 1381.75 60.3L1381.34 60.07C1380.16 60.02 1379.03 59.96 1377.9 59.89C1377.88 58.83 1377.88 57.77 1377.9 56.72C1385.92 56.6 1393.95 56.67 1401.98 56.68C1401.96 57.73 1401.96 58.79 1401.99 59.85C1399.89 60.28 1397.64 60.72 1396.08 62.3C1394.14 64.3 1392.97 66.87 1391.48 69.18C1385.75 78.59 1379.92 87.94 1374.28 97.4C1373.8 102.26 1374.21 107.24 1374.08 112.15C1374.16 115.96 1373.68 119.94 1375.02 123.59C1376.65 126.98 1380.96 126.76 1384.14 127.18C1384.1 128.17 1384.1 129.17 1384.1 130.16C1371.49 130.17 1358.88 130.19 1346.26 130.15C1346.24 129.15 1346.24 128.16 1346.24 127.17C1348.98 126.82 1352.18 126.94 1354.34 124.91C1356.4 122.43 1356.01 119.01 1356.09 115.99C1356.01 111.14 1356.21 106.29 1356.01 101.44C1350.17 90.52 1344.12 79.7 1338.19 68.82C1336.83 66.38 1335.64 63.71 1333.43 61.91C1331.85 60.6 1329.81 60.01 1327.82 59.84C1327.8 58.79 1327.8 57.74 1327.83 56.69Z" />
		<path id="Layer" class="shp0" d="M1525.94 82.48C1533.09 76.08 1543.69 74.45 1552.71 77.28C1554.99 77.87 1557.14 78.93 1559.46 79.42C1561.44 79.55 1562.31 77.49 1562.96 75.98C1563.56 75.98 1564.75 75.98 1565.35 75.99C1565.42 82.19 1565.35 88.4 1565.38 94.6C1564.58 94.59 1563.81 94.59 1563.05 94.59C1561.1 90.66 1558.99 86.68 1555.75 83.66C1552.66 80.61 1548.35 78.57 1543.95 79.01C1540.29 79.18 1536.77 81.21 1534.93 84.39C1532.34 88.69 1531.5 93.78 1531.07 98.71C1530.65 104.7 1530.79 110.85 1532.59 116.62C1533.79 120.43 1536.08 124.16 1539.75 126C1544.24 128.23 1549.67 127.63 1554.15 125.64C1558.1 123.91 1561.21 120.81 1564.16 117.73C1565.07 118.44 1565.96 119.17 1566.88 119.9C1563.41 123.89 1559.5 127.74 1554.52 129.73C1550.19 131.6 1545.38 131.87 1540.77 131.35C1530.71 130.43 1521.06 123.55 1518.07 113.68C1514.87 102.96 1517.1 89.92 1525.94 82.48Z" />
		<path id="Layer" class="shp0" d="M1428.4 76.87C1437.58 76.9 1446.77 76.8 1455.95 76.92C1455.95 77.67 1455.97 78.42 1456.01 79.17C1454.02 79.48 1451.71 79.26 1450.12 80.71C1448.69 82 1448.72 84.08 1448.68 85.84C1448.69 96.96 1448.69 108.08 1448.68 119.19C1448.78 121.45 1448.29 124.09 1449.81 126C1451.45 127.55 1453.89 127.49 1456 127.74C1455.98 128.51 1455.98 129.3 1456 130.08C1446.8 130.08 1437.6 130.08 1428.41 130.08C1428.39 129.3 1428.38 128.52 1428.39 127.75C1430.78 127.54 1434.07 127.47 1435.06 124.77C1435.9 121.72 1435.34 118.49 1435.5 115.37C1435.5 105.54 1435.49 95.71 1435.51 85.88C1435.48 84.13 1435.51 82.13 1434.19 80.81C1432.65 79.32 1430.35 79.48 1428.4 79.17C1428.38 78.41 1428.38 77.64 1428.4 76.87Z" />
		<path id="Layer" class="shp0" d="M1458.89 76.87C1464.5 76.87 1470.12 76.87 1475.74 76.87C1484.68 87.82 1493.55 98.81 1502.51 109.76C1502.54 102.23 1502.5 94.7 1502.52 87.17C1502.49 85.08 1502.4 82.72 1500.92 81.1C1499.41 79.66 1497.24 79.53 1495.33 79.18C1495.33 78.6 1495.33 77.45 1495.33 76.87C1501 76.87 1506.67 76.87 1512.35 76.87C1512.37 77.64 1512.42 78.41 1512.48 79.19C1510.33 79.74 1507.09 79.97 1506.62 82.69C1506.07 86.08 1506.45 89.54 1506.35 92.96C1506.34 105.81 1506.35 118.66 1506.35 131.51C1505.48 131.51 1504.64 131.51 1503.81 131.51C1492.31 117.54 1480.88 103.52 1469.38 89.56C1469.36 99.64 1469.37 109.73 1469.36 119.81C1469.42 121.87 1469.37 124.28 1470.98 125.82C1472.49 127.33 1474.72 127.48 1476.74 127.75C1476.71 128.53 1476.71 129.3 1476.74 130.08C1470.74 130.07 1464.75 130.09 1458.76 130.06C1458.74 129.3 1458.73 128.53 1458.73 127.76C1460.58 127.49 1462.76 127.58 1464.2 126.15C1465.64 124.37 1465.51 121.95 1465.58 119.79C1465.55 108.13 1465.6 96.46 1465.56 84.79C1463.48 82.76 1461.89 79.89 1458.9 79.12C1458.88 78.37 1458.87 77.62 1458.89 76.87Z" />
		<path id="Layer" class="shp0" d="M1580.11 118.23C1583.85 116.45 1588.98 118.77 1589.55 123.04C1590.4 126.58 1587.87 130.58 1584.21 131C1580.67 131.79 1576.74 129.21 1576.38 125.53C1575.8 122.61 1577.38 119.45 1580.11 118.23Z" />
	</g>
</svg>