<svg version="1.2" baseProfile="tiny-ps" xmlns="http://www.w3.org/2000/svg" viewBox="0 0 1324 1773" width="1324" height="1773"><title>BP_Helios_logo-svg</title><style>tspan { white-space:pre }.shp0 { fill: #009900 } .shp1 { fill: #99cc00 } .shp2 { fill: #ffff00 } .shp3 { fill: #ffffff } </style><g id="Layer_1"><path id="Layer" class="shp0" d="M1323.21 1217.05C1280.49 1171.19 1233.38 1132.24 1183.75 1100.83C1232.75 1069.43 1279.86 1029.85 1322.58 983.99C1266.67 955.73 1208.88 935 1151.72 922.43C1186.89 875.95 1217.67 822.55 1242.8 765.39C1180.61 757.85 1119.68 758.48 1061.26 766.02C1078.85 710.11 1089.53 649.81 1092.67 586.99C1031.74 601.44 973.94 622.17 922.43 649.18C919.29 590.76 909.24 530.46 891.03 470.15C838.89 504.7 791.77 544.28 752.2 586.99C729.59 532.97 698.81 480.2 661.12 429.95C623.43 480.2 593.27 533.6 570.66 587.62C531.08 544.28 483.97 504.7 431.83 470.78L431.83 470.78C413.62 530.46 403.57 590.76 400.43 649.18C348.29 622.17 291.12 601.44 230.19 586.99C233.96 649.81 244.64 710.11 262.23 766.02C203.81 758.48 142.88 758.48 80.06 766.02C104.56 823.81 135.34 876.58 171.14 923.06C113.98 936.25 56.19 956.98 0.28 985.25C43 1031.11 90.11 1070.05 139.74 1101.46C90.74 1132.87 43.63 1172.45 0.91 1218.3C56.82 1246.57 114.61 1267.3 171.77 1279.86C136.59 1326.35 105.81 1379.74 80.69 1436.9C142.88 1444.44 203.81 1443.81 261.6 1436.9C244.01 1492.81 233.33 1553.12 230.19 1615.3C291.12 1600.86 348.92 1580.13 400.43 1553.12C402.94 1611.54 413.62 1671.84 431.83 1732.14C483.97 1697.59 531.08 1658.65 570.66 1615.3C593.27 1669.33 624.05 1722.72 661.74 1772.97C699.43 1722.72 729.59 1669.33 752.2 1615.3C791.77 1658.65 838.89 1698.22 891.65 1732.14C909.87 1672.47 919.92 1612.16 923.06 1553.12C975.2 1580.13 1032.99 1600.86 1093.92 1615.3C1090.15 1552.49 1079.48 1492.81 1061.89 1436.9C1119.68 1444.44 1181.24 1444.44 1243.43 1436.9C1218.93 1379.11 1188.15 1326.35 1152.34 1279.86C1209.51 1266.04 1267.3 1245.31 1323.21 1217.05Z" /><path id="Layer" class="shp1" d="M1152.34 1279.23C1119.68 1236.52 1082.62 1198.83 1042.41 1168.05C1090.78 1152.97 1137.9 1129.73 1183.75 1100.83C1137.9 1071.94 1090.78 1049.32 1042.41 1034.25C1082.62 1003.47 1119.05 965.78 1152.34 922.43C1099.58 910.5 1047.44 905.47 996.56 907.99C1023.57 865.27 1045.55 817.53 1061.26 765.39C1007.86 772.3 956.98 785.49 909.87 804.97C920.55 755.34 924.95 703.2 921.81 648.55C874.06 673.68 830.72 703.2 793.66 737.75C786.75 687.5 772.93 636.62 751.57 586.99C714.51 627.19 684.36 669.91 661.12 715.14C637.87 670.54 607.09 627.19 570.03 587.62C549.3 637.25 535.48 688.13 529.2 737.75C492.14 703.83 448.17 673.68 399.8 649.18C397.28 703.2 401.68 755.97 412.36 805.59C365.88 786.12 314.99 773.56 260.97 766.65C277.3 818.16 299.29 865.9 326.3 908.61C276.05 906.73 223.28 911.75 169.89 923.69C202.55 966.41 239.61 1004.1 279.82 1034.88C231.45 1049.95 184.34 1073.19 138.48 1102.09C184.34 1130.99 231.45 1153.6 279.82 1168.68C239.61 1199.46 203.18 1237.15 169.89 1280.49C222.65 1292.43 274.79 1297.45 325.05 1294.94C298.03 1337.65 276.05 1385.39 260.34 1437.53C313.74 1430.62 365.25 1417.43 411.73 1397.96C401.05 1446.95 396.66 1499.72 399.17 1553.74C447.54 1528.62 490.88 1499.09 527.94 1465.17C534.85 1515.43 548.67 1566.31 569.4 1615.93C605.84 1575.73 636.62 1533.01 659.86 1488.41C683.1 1533.01 713.88 1576.36 750.94 1615.93C771.67 1566.31 785.49 1515.43 792.4 1465.17C829.46 1499.09 873.44 1529.25 921.81 1553.74C924.32 1499.72 919.92 1446.95 909.24 1397.96C955.73 1417.43 1007.24 1429.99 1060.63 1436.9C1044.3 1385.39 1022.31 1337.65 995.3 1294.94C1046.81 1296.19 1099.58 1291.17 1152.34 1279.23Z" /><path id="_x0032_" class="shp2" d="M922.43 1101.46C964.52 1085.76 1005.35 1063.14 1043.04 1034.25C997.81 1019.8 951.96 1012.89 907.36 1012.26C941.91 983.37 972.06 948.19 997.19 907.99C950.07 909.87 904.22 918.66 862.13 934.37C884.74 895.42 901.08 852.08 911.13 805.59C867.15 823.81 827.58 847.68 793.03 876.58C800.57 831.98 801.2 785.49 794.92 738.38C759.74 770.42 730.21 806.85 707.6 845.8C699.43 801.2 684.36 757.23 662.37 715.14C641.01 757.23 625.31 800.57 617.77 844.54C595.16 805.59 565.63 769.79 530.46 737.75C524.17 784.86 524.8 831.35 532.34 875.95C497.79 847.05 457.59 823.18 413.62 805.59C423.67 852.08 440 895.42 462.61 934.37C420.53 919.29 374.67 910.5 327.56 908.61C353.31 948.82 383.46 983.37 417.39 1012.89C372.16 1012.89 326.3 1020.43 281.07 1034.88C318.76 1063.77 358.97 1086.39 401.68 1101.46C359.59 1117.17 318.76 1139.78 281.07 1168.68C326.3 1182.5 372.16 1190.03 416.76 1190.66C382.21 1219.56 352.06 1254.74 326.3 1294.94C373.41 1293.05 419.27 1284.26 461.36 1269.18C438.74 1308.13 422.41 1352.1 412.36 1397.96C456.33 1379.74 495.91 1355.87 530.46 1326.97C522.92 1371.57 522.29 1417.43 528.57 1464.54C563.75 1432.51 593.27 1396.7 615.89 1357.75C624.05 1402.35 639.13 1445.7 661.12 1487.79C683.1 1445.7 698.18 1402.35 706.34 1357.75C728.96 1396.7 758.48 1432.51 793.66 1464.54C799.94 1417.43 799.31 1370.95 791.77 1326.97C826.32 1355.87 866.53 1379.74 910.5 1397.96C900.45 1351.47 884.12 1308.13 861.5 1269.18C904.22 1284.26 949.45 1293.05 997.19 1294.94C971.43 1254.74 941.28 1220.19 906.73 1190.66C951.96 1190.66 997.81 1183.12 1043.04 1168.68C1004.72 1139.15 964.52 1116.54 922.43 1101.46Z" /><path id="_x0031_" class="shp3" d="M793.66 1124.08C837.63 1124.08 880.97 1115.91 921.81 1100.83C880.35 1085.76 837.63 1077.59 793.66 1077.59C835.12 1062.52 872.81 1039.9 906.1 1011.63C862.13 1011.63 818.79 1018.54 777.33 1033.62C811.25 1005.35 838.89 971.43 860.87 933.11C819.41 948.19 781.72 969.55 747.8 997.81C769.79 959.5 784.24 918.04 791.77 875.32C757.85 903.59 729.59 936.88 706.97 975.2C714.51 931.86 713.88 887.88 706.34 844.54C684.36 882.23 669.28 923.06 661.74 965.78C654.21 922.43 638.5 880.97 616.52 843.28C608.98 886.63 608.35 930.6 615.89 973.94C593.9 935.63 565.01 902.33 531.71 874.06C539.25 917.41 553.7 958.87 575.68 996.56C541.76 968.29 503.45 946.93 462.61 931.86C484.6 970.17 512.24 1003.47 546.16 1032.36C504.7 1017.29 461.36 1010.38 418.01 1010.38C451.31 1038.65 489 1060.63 530.46 1076.34C486.48 1076.34 443.14 1084.5 401.68 1099.58C443.14 1114.65 485.86 1122.82 529.83 1122.82C488.37 1137.9 450.68 1160.51 416.76 1188.78C460.73 1188.78 504.07 1181.87 545.53 1166.79C511.61 1195.06 483.97 1228.98 461.99 1267.3C503.45 1252.22 541.76 1230.86 575.06 1202.6C553.07 1240.92 538.62 1282.37 531.08 1325.72C565.01 1297.45 593.27 1264.16 615.26 1226.47C607.72 1269.81 608.35 1313.78 615.89 1356.5C637.87 1318.81 653.58 1277.35 661.12 1234.63C668.65 1277.98 684.36 1318.81 706.34 1357.13C713.88 1313.78 714.51 1270.44 706.97 1227.1C728.96 1265.41 757.85 1298.71 791.15 1326.35C783.61 1283 769.16 1242.17 747.17 1203.85C781.1 1232.12 819.41 1253.48 860.87 1268.55C838.89 1230.24 811.25 1196.94 777.33 1168.05C818.79 1183.12 862.13 1190.03 906.1 1190.03C872.81 1161.77 835.12 1139.78 793.66 1124.08Z" /></g><g id="Layer_2"><g id="Layer"><path id="Layer" fill-rule="evenodd" class="shp0" d="M889.14 0.28L889.14 124.03C895.42 113.35 912.38 83.83 965.78 83.83C989.02 83.83 1018.54 89.48 1039.9 113.98C1051.84 127.17 1067.54 150.41 1067.54 201.92C1067.54 247.15 1056.86 272.28 1044.93 287.35C1026.08 313.74 994.67 327.56 962.64 327.56C951.33 327.56 930.6 326.3 910.5 312.48C897.94 303.69 892.28 295.52 887.88 288.61L886.63 323.79L844.54 323.79L845.8 281.7L845.8 0.28L889.14 0.28ZM955.73 113.98C888.51 113.98 888.51 191.87 888.51 206.95C888.51 222.03 888.51 295.52 953.84 295.52C1007.86 295.52 1021.68 242.75 1021.68 204.44C1021.68 181.19 1016.66 113.35 955.73 113.98Z" /><path id="Layer" fill-rule="evenodd" class="shp0" d="M1101.46 413.62L1102.09 128.43C1102.09 118.38 1101.46 112.72 1100.83 90.11L1144.81 90.11L1145.43 129.06C1167.42 91.99 1206.37 86.34 1225.21 86.34C1275.46 86.34 1323.21 120.89 1323.21 207.58C1323.21 294.89 1272.32 333.21 1216.42 333.21C1182.5 333.21 1157.37 318.76 1144.81 298.03L1144.81 413.62L1101.46 413.62ZM1208.25 301.17C1219.56 301.17 1242.8 299.29 1257.88 278.56C1274.21 255.32 1276.72 222.03 1276.72 205.06C1276.72 162.98 1264.16 119.01 1212.65 119.01C1142.92 119.01 1142.92 193.13 1142.92 213.86C1142.92 242.13 1147.32 300.55 1208.25 301.17Z" /></g></g></svg>