<svg version="1.2" baseProfile="tiny-ps" xmlns="http://www.w3.org/2000/svg" viewBox="0 0 1674 406" width="1674" height="406">
	<title>palantir-svg</title>
	<style>
		tspan { white-space:pre }
		.shp0 { fill: #000000 } 
	</style>
	<path id="Layer" fill-rule="evenodd" class="shp0" d="M511.53 42.47C549.98 42.47 575.06 44.17 596.78 67.94C611.82 84.94 620.18 105.32 620.18 129.11C620.18 152.88 611.82 173.28 595.11 190.25C578.38 207.24 556.67 217.45 501.49 217.45L451.37 217.45L451.37 358.44L407.89 358.44L407.89 42.47L511.53 42.47ZM501.49 181.77C529.92 181.77 573.38 180.06 573.38 127.4C573.38 78.13 533.25 78.13 509.85 78.13L451.37 78.13L451.37 181.77L501.49 181.77ZM755.59 326.16C735.51 361.83 707.12 365.24 688.71 365.24C638.57 365.24 611.82 336.35 611.82 300.68C611.82 283.69 618.51 254.81 650.27 236.13C673.67 222.53 707.1 222.53 725.49 222.53C735.53 222.53 742.2 222.53 753.92 224.23C753.92 197.05 753.92 185.16 745.55 174.97C737.19 164.78 720.49 161.36 708.79 161.36C668.66 161.36 665.31 190.27 665.31 198.76L625.2 198.76C626.87 186.86 628.55 171.58 640.25 157.99C656.96 139.32 687.05 134.2 710.45 134.2C742.2 134.2 775.64 144.39 787.34 166.48C794.03 180.08 794.03 190.27 794.03 200.46L792.37 305.78C792.37 309.17 792.37 338.06 795.71 360.14L758.93 360.14L758.93 358.44C755.59 348.25 755.59 336.35 755.59 326.16ZM651.95 293.86C651.95 307.46 660.3 331.24 697.09 331.24C717.14 331.24 733.85 322.75 743.89 307.44C752.24 292.16 753.92 280.28 753.92 249.69C747.23 251.4 740.54 249.69 730.5 249.69C713.79 249.69 651.95 249.69 651.95 293.86ZM829.13 42.47L869.26 42.47L869.26 358.44L829.13 358.44L829.13 42.47ZM1039.77 326.16C1019.7 361.83 991.31 365.24 972.9 365.24C922.75 365.24 896 336.35 896 300.68C896 283.69 902.7 254.81 934.45 236.13C957.85 222.53 991.29 222.53 1009.68 222.53C1019.72 222.53 1026.39 222.53 1038.11 224.23C1038.11 197.05 1038.11 185.16 1029.73 174.97C1021.38 164.78 1004.67 161.36 992.97 161.36C952.84 161.36 949.5 190.27 949.5 198.76L909.39 198.76C911.05 186.86 912.71 171.58 924.43 157.99C941.14 139.32 971.23 134.2 994.63 134.2C1026.39 134.2 1059.82 144.39 1071.52 166.48C1078.21 180.08 1078.21 190.27 1078.21 200.46L1076.55 305.78C1076.55 309.17 1076.55 338.06 1079.9 360.14L1043.12 360.14L1043.12 358.44C1039.77 348.25 1039.77 336.35 1039.77 326.16ZM1016.35 249.71C999.64 249.71 937.8 249.71 937.8 293.88C937.8 307.48 946.15 331.26 982.93 331.26C1003.01 331.26 1019.72 322.77 1029.73 307.46C1038.11 292.18 1039.77 280.3 1039.77 249.71C1031.42 251.42 1026.39 249.71 1016.37 249.71L1016.35 249.71ZM1115 164.78L1115 139.3L1155.11 139.3L1155.11 174.97C1160.13 166.48 1175.18 135.91 1223.64 135.91C1243.72 135.91 1302.22 142.69 1302.22 210.65L1302.22 360.14L1260.43 360.14L1260.43 220.84C1260.43 207.24 1258.76 193.64 1248.73 183.47C1238.69 173.28 1223.64 168.19 1210.28 168.19C1180.19 168.19 1153.44 190.25 1153.44 234.42L1153.44 360.14L1113.31 360.14L1113.31 164.78L1115 164.78ZM1354.04 139.3L1354.04 91.74L1394.15 78.13L1394.15 137.61L1442.64 137.61L1442.64 168.19L1394.17 168.19L1394.17 298.98C1394.17 309.17 1394.17 327.87 1422.56 327.87C1430.94 327.87 1439.29 326.16 1442.64 326.16L1442.64 358.44C1435.94 360.14 1424.24 361.83 1409.2 361.83C1370.75 361.83 1354.04 349.93 1354.04 314.26L1354.04 168.17L1315.58 168.17L1315.58 139.3L1354.04 139.3ZM1519.53 42.47L1519.53 88.35L1471.06 88.35L1471.06 42.47L1519.53 42.47ZM1514.52 139.3L1514.52 358.44L1474.39 358.44L1474.39 139.3L1514.52 139.3ZM1552.96 183.47C1552.96 168.19 1551.3 152.88 1551.3 139.3L1591.41 139.3L1593.09 181.77C1601.45 151.19 1626.51 141 1644.9 139.3C1647.25 138.98 1649.61 138.7 1651.98 138.47C1654.34 138.24 1656.71 138.05 1659.08 137.91C1661.45 137.77 1663.83 137.67 1666.2 137.62C1668.58 137.57 1670.95 137.56 1673.33 137.59L1673.33 178.38C1671.64 178.38 1668.3 176.67 1664.97 176.67L1653.25 176.67C1604.79 176.67 1594.75 205.54 1594.75 242.91L1594.75 360.12L1554.65 360.12L1554.65 183.45L1552.96 183.45L1552.96 183.47ZM310.93 154.58C310.93 239.54 242.39 309.17 158.81 309.17C75.23 309.17 6.69 239.52 6.69 154.58C6.69 69.65 75.23 0 158.81 0C242.39 0 310.93 69.65 310.93 154.58ZM264.13 154.58C264.13 95.13 217.31 47.56 158.81 47.56C100.29 47.56 53.49 95.13 53.49 154.58C53.49 214.04 100.29 261.61 158.81 261.61C215.65 261.61 262.45 214.04 264.13 154.58ZM294.2 295.59L317.62 338.06L158.81 406L0 338.06L23.4 295.59L158.81 355.03L294.2 295.59Z" />
</svg>