<svg version="1.2" xmlns="http://www.w3.org/2000/svg" viewBox="0 0 1635 412" width="1635" height="412">
	<title>Ffororor-svg</title>
	<style>
		.s0 { fill: #000000 } 
	</style>
	<path id="Layer" fill-rule="evenodd" class="s0" d="m995.2 117c32.2 0 59.4 12.4 80.8 38q32.2 38.4 32.2 96.6c0 48.7-14.8 88.4-42.9 116.5-28 28.9-66.8 42.9-116.3 42.9-26.4 0-61.9-4.1-107.2-14 1.6-20.7 2.4-74.4 2.4-159.4 0.9-85.9-0.8-140.4-2.4-164.4-1.7-12.4-4.2-20.6-7.5-26.4-3.3-5-9.1-8.3-18.1-9.1l-12.4-1.7v-11.5l126.2-24c-2.5 41.3-3.3 85.9-3.3 133.8 24.8-11.5 47.1-17.3 68.5-17.3zm-45.4 275c20.6 0 37.1-13.2 50.3-38.8 13.2-26.4 19.8-57.8 19.8-96.6 0-31.4-5.7-56.2-17.3-76.9-11.5-20.6-27.2-30.5-47-30.5-12.4 0-22.3 1.6-29.7 4.1 0 129.7 1.6 209 3.3 235.4 7.4 0.8 14 1.7 20.6 3.3zm-616.3-272.5l-19.8 5.7c-18.1-59.4-49.5-89.2-95.7-89.2h-65.1c-2.5 32.2-4.2 85.1-4.2 159.4l44.6-0.8c24.7-0.8 40.4-19 48.7-54.5h16.5v134.6h-16.5c-8.3-36.3-24.8-54.5-48.7-55.3l-44.6-0.8c0 42.1 1.7 80.1 4.2 113.1q1.2 27.3 9.9 39.7c5.7 7.4 14.8 13.2 28 14.8l22.3 1.7v16.5h-212.9v-16.5l17.4-2.5c13.2-1.7 22.2-6.6 28-14.9q7.4-12.4 9.9-39.6c6.6-76.8 6.6-160.2 0-249.4q-1.2-27.3-9.9-39.7c-5.8-7.4-14.8-12.4-28-14.9l-17.4-1.6v-16.5h330zm-3.3 37.1c26.4-28.9 62.7-42.9 107.3-42.9 44.5 0 80 13.2 103.9 41.3 24 28.1 36.3 63.6 36.3 106.5 0 43-12.3 78.5-38.7 106.6-26.4 28.9-62.7 42.9-107.3 42.9-44.5 0-80-13.2-103.9-41.3-24-28-36.3-63.6-36.3-106.5 0-43 12.3-78.5 38.7-106.6zm103.2-23.9c-35.5 0-53.7 42.9-53.7 129.7 0 37.1 4.2 68.5 14.1 93.3q14.8 37.2 42 37.2c35.5 0 53.7-43 53.7-130.5 0-38-4.2-69.4-14.1-93.4-9.9-24.7-23.9-37.1-42-36.3zm698.7 132.1c0-42.1 12.4-77.6 38-106.5 25.6-28.9 61-43.8 107.2-43.8q55.7 0 86.7 37.2c20.6 25.6 30.5 57.8 30.5 97.4h-176.6c-1.6 36.4 6.6 64.5 24.8 86.8 17.3 22.3 42.9 33 75.9 33 23.9 0 44.5-6.6 62.7-20.6l8.2 9.9c-10.7 14.8-26.4 27.2-46.2 37.1-19.8 10.8-42 15.7-67.6 15.7-41.3 0-75.9-14-103.1-41.3-27.3-27.2-40.5-61.9-40.5-104.9zm87.5-35.5l87.4-1.6c0-63.6-12.3-95-37.1-95-15.7 0-27.2 9.9-36.3 29.7-9.1 19.8-13.2 42.1-14 66.9zm400.1-28.9l-14 4.1c-14.8-47-38.8-71-71.8-71-11.5 0-20.6 3.3-28 11.6-7.4 8.2-10.8 18.2-10.8 30.5 0 12.4 5 22.3 14.9 30.6 9.9 8.3 28.9 17.3 56.1 27.3 24.8 9.9 42.1 20.6 52.8 33 10.7 12.4 15.7 28.9 15.7 48.7 0 29.8-10.7 53.7-32.2 70.2-21.4 17.4-50.3 25.6-88.3 25.6q-54.4 0-99-17.3l-3.3-82.6 14.1-4.1c18.9 52.8 46.1 79.3 82.5 79.3 14.8 0 26.3-4.2 34.6-13.3 9.1-8.2 13.2-19 13.2-30.5 0-12.4-5-21.5-13.2-29.8-8.3-7.4-24.8-15.6-47.9-23.9-25.5-9.1-45.3-19.8-57.7-32.2-12.4-12.4-19-29.8-19-52.1 0-25.6 10.7-47 31.4-64.4 20.6-17.3 47.8-26.4 82.5-26.4 33.8 0 61.8 5.8 84.1 15.7zm-827.5-1.7c-19.8-11.5-38.7-16.5-55.2-14.8q-24.8 2.4-32.2 14.8c-4.1 52.9-3.3 104.1 1.6 152 1.7 22.3 10.8 34.7 26.4 36.3l22.3 1.7v15.7h-174.9v-15.7l12.4-1.7c15.7-2.4 24.7-14 26.4-36.3q7.4-86.7 0-163.5c-1.7-22.3-10.7-34.7-26.4-36.4l-12.4-0.8v-11.6l125.4-24.7-0.8 66c9.1-21.4 20.6-37.1 36.3-48.7 15.7-11.6 29.7-17.3 43.7-17.3 14 0 26.4 2.4 38 8.2z"/>
</svg>