<svg version="1.2" xmlns="http://www.w3.org/2000/svg" viewBox="0 0 1539 109" width="1539" height="109">
	<title>halliburton-logo-svg</title>
	<style>
		.s0 { fill: #cc0000 } 
	</style>
	<g id="Symbols">
		<g id="nav-bar-laptop-slim-l-1440">
			<g id="logo/halliburton">
				<path id="Layer" fill-rule="evenodd" class="s0" d="m813.5 2.2v61c0 13.4 4.9 18.7 18.4 18.7h32.8c13.6 0 18.5-5.3 18.5-18.7v-61h33.1v68c0 26.2-13.9 38.8-44.3 38.8h-47.4c-30.4 0-44.2-12.6-44.2-38.8v-68zm510.5-1.2c29.8 0 47.5 7.3 47.5 38.2v31.6c0 30.9-17.7 38.2-47.5 38.2h-53.1c-29.8 0-47.5-7.3-47.5-38.2v-31.6c0-30.9 17.7-38.2 47.5-38.2zm-1290.8 1.2v37.6h69.7v-37.6h33.1v105.6h-33.1v-40h-69.7v40h-33.1v-105.6zm216 0l59.3 105.6h-36.8l-10.3-18.7h-67l-9.7 18.7h-37l58.4-105.6zm104.2 0v78.5h74.4v27.1h-107.4v-105.6zm121.4 0v78.5h74.4v27.1h-107.5v-105.6zm90.2 0h33.1v105.6h-33.1zm152.4 0c26.4 0 39.2 7 39.2 27.8 0 18.1-6.7 21.6-15.9 24.2v0.4c14.4 1.8 19.8 9.4 19.8 25.3 0 23.2-14 28-32.9 28h-105.4v-105.7zm321.1 0c25.5 0 32.4 12.4 32.4 31.4v6.7c0 14.2-3.3 22.5-18.5 26v0.3c9.8 1.7 18 6 18 23.3v18h-33.1v-12.7c0-11.1-3.3-14.7-13.5-14.7h-52v27.4h-33.1v-105.7zm172.8 0v26.3h-46.5v79.4h-33.1v-79.4h-46.4v-26.3zm231.4 0l62.1 76.8h0.3v-76.8h33.1v105.7h-51.3l-62.1-76.8h-0.3v76.8h-33.1v-105.7zm-728.2 63.8h-59.3v16.5h59.3c7.2 0 12-1.6 12-7.7 0-7.2-4.8-8.8-12-8.8zm602.3-37.8h-38.8c-17.4 0-20.7 8-20.7 21.2v11.4c0 15.3 3.3 21.1 19 21.1h42.3c15.6 0 18.9-5.8 18.9-21.1v-11.4c0-13.2-3.3-21.2-20.7-21.2zm-1089.3-1.4l-20.8 39.6h42.3zm795.9 1.8h-51.7v25.7h54.6c9 0 12.3-3.5 12.3-11.1v-3.5c0-9.4-4.8-11.1-15.2-11.1zm-309.6-0.9h-58.6v16.5h58.6c6.1 0 9.6-2.2 9.6-8.2 0-6.1-3.5-8.3-9.6-8.3z"/>
			</g>
		</g>
	</g>
</svg>