<svg version="1.2" xmlns="http://www.w3.org/2000/svg" viewBox="0 0 1562 503" width="1562" height="503">
	<title>Monsanto_logo-svg</title>
	<style>
		.s0 { fill: #005837 } 
		.s1 { fill: #ca6c18 } 
	</style>
	<g id="layer1">
		<g id="g3082">
			<g id="g3589">
				<path id="path3591" class="s0" d="m105.4 327.4h-1.5l-32.3 83.2h-5.9l-32.3-83.2h-1.4l-5.6 59.2c-1.3 11.5 1.7 18.7 13.3 19.2v4.8h-38.7v-4.8c10.3-0.3 15.1-4.6 16.7-19.5l7.4-66.2c-2.5-3.3-8.1-4.4-15-4.4v-4.8h38.2l26.2 70 27.2-70h38.3v4.8c-7.9 0.3-14.6 2.1-14.6 11.2 0 1.3 0.5 8.8 0.5 9.8l4.7 48.5c1.9 18.5 8.7 19.7 17.5 20.6v4.8h-51.6v-4.8c9.8-0.6 14.4-2.6 14.4-14.4l-0.3-7.8z"/>
			</g>
			<g id="g3593">
				<path id="path3595" class="s0" d="m368 337.1c0-10.4-0.3-20-18.8-21.4v-4.8h34.3l63.5 73.4v-51.6c0-14.9-6.2-16.5-16.7-17v-4.8h40.9v4.8c-10.5 0.6-16.4 2.1-16.4 17v80.1h-9.6l-69.2-80.7v57c0 9.4 3.5 16.7 14.1 16.7h4v4.8h-42.3v-4.8c10.1-0.5 16.2-3.3 16.2-17.2z"/>
			</g>
			<g id="g3597">
				<path id="path3599" class="s0" d="m794.6 337.1c0-10.4-0.3-20-18.8-21.4v-4.8h34.3l63.6 73.4v-51.6c0-14.9-6.3-16.5-16.7-17v-4.8h40.9v4.8c-10.6 0.6-16.5 2.1-16.5 17v80.1h-9.6l-69.2-80.7v57c0 9.4 3.5 16.7 14.1 16.7h4v4.8h-42.3v-4.8c10.2-0.5 16.2-3.3 16.2-17.2z"/>
			</g>
			<g id="g3601">
				<path id="path3603" fill-rule="evenodd" class="s0" d="m247 412.8c-38.2 0-58.6-25.9-58.6-52.2 0-28 21.9-52.2 57.8-52.2 35.1 0 60.4 22.1 60.4 52.4 0 26.6-22.4 52-59.6 52zm0.2-96.8c-24.5 0-37.2 19.7-37.2 45.1 0 26.6 14.4 44 37.2 44 16.7 0 37.7-10.3 37.7-44.5 0-36.4-22.2-44.6-37.7-44.6z"/>
			</g>
			<g id="g3605">
				<path id="path3607" fill-rule="evenodd" class="s0" d="m1130.4 412.7c-38.2 0-58.6-25.8-58.6-52.2 0-27.9 21.9-52.2 57.8-52.2 35.1 0 60.4 22.2 60.4 52.5 0 26.6-22.4 51.9-59.6 51.9zm0.2-96.8c-24.5 0-37.2 19.8-37.2 45.1 0 26.7 14.5 44.1 37.2 44.1 16.7 0 37.8-10.4 37.8-44.6 0-36.4-22.3-44.6-37.8-44.6z"/>
			</g>
			<g id="g3609">
				<path id="path3611" class="s0" d="m995.2 388.5c0 15.2 5.8 16.2 16.2 17.2v4.9h-52.9v-4.9c10.7-1 16.4-2 16.4-17.2v-70.7h-13.5c-17.2 0-18.9 12.5-19.6 19.7h-5.5l1.2-31.6h4.4c1.9 3.6 6.5 5 15.4 5h55.6c8.8 0 13.2-1.3 15.4-5h4.4l1.2 31.6h-5.5c-0.8-7.6-2.4-19.7-19.7-19.7h-13.5z"/>
			</g>
			<g id="g3613">
				<path id="path3615" fill-rule="evenodd" class="s0" d="m655.4 389.4c-1 2.6-2 6.5-2 8.1 0 7.6 8.1 7.9 12.5 8.3v4.8h-38.1v-4.8c11.5-0.6 14.6-5.7 20.5-21l28.9-75.7h17.9l28.1 76.4c5.9 15.7 8.7 19.5 21 20.3v4.8h-49.6v-4.8c5.8 0 12-1 12-6.4 0-2.1-1.1-4.8-1.9-7.1l-7.1-19.2h-36.2zm39.8-23.5l-14.5-43h-0.8l-16.1 43z"/>
			</g>
			<g id="g3617">
				<path id="path3619" class="s0" d="m585.2 337.3h-5.8c-2.4-11.4-10.3-22.2-23.9-22.2-12.5 0-17.6 6.6-17.6 13.1 0 10.8 11.6 15.3 25.5 21.7 18.5 8.6 27.2 18.8 27.2 34.7 0 14.1-10.7 28.1-35.7 28.1-14 0-20.1-5-25.4-5-2.6 0-4 2.2-4.6 4.4h-5v-31.9h5.7c1.1 11.9 9.4 25.3 25.8 25.3 13.2 0 20.7-7.2 20.7-16 0-8-5.3-15.7-26.5-25.5-11.2-5.3-25.2-12.1-25.2-29.9 0-11 9.4-25.8 32.1-25.8 11.9 0 19.3 4.2 23.5 4.2 3.5 0 4.2-2.8 4.5-3.8h4.7z"/>
			</g>
			<g id="g3621">
				<path id="path3623" fill-rule="evenodd" class="s1" d="m1516.4 479l-12.6 6.3-16.3-2.1-10.9-2.1-2.4 0.2-7.9 1.3-7.8 0.6-27.5 1.4-26.9 1.4-25.2 1.4-17.6 2-12.1 1.1-9 3.1-8.7-2-7.3 6.3-7.2 4.2-10-2.4 2.8-21 1.7-20.7c0 0 0-10.5-1.8-23.1-0.8-5.5-0.7-26.4-0.7-26.4l0.7-26-3.7-29.1-3.5-27.6-1.9-20.2-1-11.2-2.5-27.4-1.9-25.6-1.7-22.7-1.6-23.2-1.6-23 0.7-23.4 0.8-22.4 0.7-22.9 0.7-21.3 0.7-21.2 4.9-19.3 4.1-16.4 19.9-8.4h23.5l29 2.1 14.5 2.1 23.5-6.3 18.7-3.2 17.5-3.1 12.6 2.1-2-10.9h12.6l14.8 8.8 26-0.2 5.5 18.9-13.4 4.4 0.9 18.6 0.9 17.1 0.9 29.3 0.9 27.4v54.6l5.4 25.1-0.3 25.4-0.6 24.2-0.6 23.9 0.9 24.2 0.9 24.1 2 20.4 2.8 26.4 2.3 24-3.8 27.8-1.8 25.2-7.2 16.8zm-18.3-33.5v-31.5l-1.8-16.8-0.5-8.4-4.1-16.7 0.4-17.2 1.9-18.6-0.6-19.1-0.6-20.6-0.6-21.1 4.1-16.8-3.4-23.1-3.4-19.6-3.9-22.4-0.8-26.2-1-28.4-1.1-21-1.3-23.6-1.2-22.6-2.7-20.8-2.7-21.2h-30.8l-12.6 4.2-23.6 4.3-12.6 2.1-12.7 4.1-16.2 2.9-21.8-4.9-16.3-2.1-5.4 23-1.7 25.1-1.9 27.4-2.6 25.2-2.8 27.3-1.1 18.3-1.2 19.5 5.1 16.8 5.8 18.9c0 0 0.6 9.3 1.1 20 0.4 7.6 0.7 15.9 0.7 22v35.6l3.4 23.1 2.4 25.2-4 31.5 3.6 29.4 1.8 19.5 1.8 20.4 9.5 6.3 23.5-4.2 23.6-8.4 17.1-1 19-1.1 12.7-2.1 28.9 4.2 28.8 2.1z"/>
			</g>
			<g id="g3625">
				<path id="path3627" class="s0" d="m1388.2 114.8c9.9-1.4 17.8-6 23.4-13.6 14.6-19.8 8.9-54.3 8.9-54.6l-0.2-1-0.9 0.5c-16.4 8.3-27.3 17.9-33.4 29.4-5.5 10.7-6.8 22.6-3.7 36.6v0.4l0.4 0.1 5.1 2.1 0.2 0.1z"/>
			</g>
			<g id="g3629">
				<path id="path3631" class="s0" d="m1465.2 118.9l-2.3-0.2c-8.1-0.7-18.3-1.5-27.1 3.9-10.2 6.4-16.6 19.9-19.6 41.3v0.5l0.4 0.3c6.3 3.4 12.5 3.8 18.5 1.3 19.5-8.2 30.3-44.6 30.7-46.2l0.3-0.8z"/>
			</g>
			<g id="g3633">
				<path id="path3635" class="s0" d="m1417.7 240.1c7.8 1.2 19.3-0.6 28.4-9 10.4-9.6 15-25.9 13.5-47l-0.1-0.6h-0.7c-0.2 0-20.6 0.6-33 15.3-8.3 9.8-11.2 23.5-8.7 40.7l0.1 0.5z"/>
			</g>
			<g id="g3637">
				<path id="path3639" class="s0" d="m1362.4 169.7c0.1 4.9 6.6 25.1 21.4 36.6 9.3 7.1 19.7 9.3 31.1 6.5l0.3-0.1 0.2-0.3c0.3-0.7 8.9-18.1 0-31.1-7.5-10.9-25.1-15.1-52.3-12.3l-0.7 0.1z"/>
			</g>
			<g id="g3641">
				<path id="path3643" class="s0" d="m1407.7 309.8c20.6 1.5 35.6-2.1 46-11.2 10.8-9.4 16.6-24.7 17.9-46.8v-0.7h-0.7c-0.4-0.1-11.7-1.4-25.3 5.1-12.5 6-29.3 19.9-38.6 52.7l-0.2 0.8z"/>
			</g>
			<g id="g3645">
				<path id="path3647" class="s0" d="m1347.5 225.5c-3.7 13.6 0.5 36.4 13.8 51 9 9.7 20.4 13.7 33 11.5l0.4-0.1 0.1-0.3c0.1-0.2 8.3-15.6 1.2-31.7-6.4-14.3-22.4-24.7-47.6-31l-0.7-0.1z"/>
			</g>
			<g id="g3649">
				<path id="path3651" class="s0" d="m1345.2 295c-2.4 12.1 4.1 38.4 19.9 52.1 9.5 8.2 20.7 10.3 32.5 6.1l0.3-0.1 0.1-0.3c0.3-0.6 6.1-14.4 0.1-26.1-3.6-7.1-10.7-11.8-21-14.1h0.1c-8.2-3-29.5-11.8-30.6-17.6z"/>
			</g>
			<g id="g3653">
				<path id="path3655" class="s0" d="m1465.3 304.2c-54.9 18.6-54 56-48.6 76.7l0.1 0.4 0.4 0.1c10.8 3.4 21.2 2 29.2-4.1 14.3-10.8 21.1-35.8 19.8-72.5v-1z"/>
			</g>
			<g id="g3657">
				<path id="path3659" class="s0" d="m1432 405.8c-19.8-28.6-38.6-42.3-55.6-40.8-19.2 1.7-30.8 22.6-34.9 31.5l-0.2 0.6 0.5 0.3c37.5 25.5 89.3 9.6 89.9 9.5l0.9-0.3z"/>
			</g>
			<g id="g3661">
				<path id="path3663" class="s0" d="m1482.7 371.7c-28.5 5-48.2 16.4-58.6 33.8-14.4 24.3-5.3 52.1-5.2 52.4l0.2 0.5h0.6c20.7-2.4 56.3-27.8 63.8-85.9l0.1-1z"/>
			</g>
			<g id="g3665">
				<path id="path3667" class="s0" d="m1346.4 105.5c10 23.7 22.7 33.3 31.5 37.3 9.7 4.3 16.9 2.9 17.2 2.9l0.1-0.1h0.1c3.7-1.9 12.7-2 12.8-2l-0.5-0.2 1.1 1.1c0 0 0.2-1.5 0.2-1.5 1-10.8-2.7-20.3-10.7-27.5-12-10.6-32.6-15-51.3-11l-0.9 0.2z"/>
			</g>
			<g id="g3669">
				<path id="path3671" class="s0" d="m1384.5 111.5c11.5 0.6 29.9 40.5 29.3 81.8 0 0.3-0.4 31-21 88 0 0-5.2 11.7-7.4 26.1-2.9 19.3 0.9 34.8 11 44.8l-0.1-0.1c0.2 0.3 24.1 35.5 35.5 59.4l0.6 1.1 0.7-1.1 10.2-15.3 0.3-0.5-0.4-0.4c-13.3-13.2-21.7-26.1-29.1-37.5-23.1-35.5-12.9-62.8-7.5-77.4l1-2.5c16.4-45.2 17.5-72.1 17.5-72.4l0.1-1.6-1.2 1-3.1 2.6 1.1 0.7c5.6-26.3 4.8-83-38.3-109.3l-1.3-0.8 0.2 1.5 1.3 11.2v0.6z"/>
			</g>
			<g id="g3673">
				<path id="path3675" class="s0" d="m1437.2 397l-35.4-53.7-0.3-0.5-0.6 0.3-7.8 3.7-0.8 0.3 0.5 0.7c3.5 5.6 6.8 10.5 9.9 15.4 8.8 13.3 17 25.9 29.2 48.3l0.8 1.5 0.5-1.6 4.1-13.8 0.1-0.4z"/>
			</g>
			<g id="g3677">
				<path id="path3679" fill-rule="evenodd" class="s0" d="m1548.7 443.3c6.8 0 12.3 5.6 12.3 12.5 0 7-5.5 12.6-12.4 12.6-6.9 0-12.5-5.6-12.5-12.6 0-6.9 5.6-12.5 12.5-12.5zm-0.1 2.5c-5.2 0-9.5 4.5-9.5 10.1 0 5.6 4.3 10 9.5 10 5.3 0 9.6-4.4 9.6-10 0-5.6-4.3-10.1-9.6-10.1zm-2.1 17.3h-2.9v-13.9c1.1-0.1 2.3-0.4 4.4-0.4 2.4 0 3.9 0.4 4.8 1.1 0.8 0.7 1.2 1.6 1.2 3 0 1.7-1.1 2.9-2.6 3.3v0.1c1.2 0.2 2 1.3 2.2 3.4 0.3 2.1 0.5 3 0.8 3.4h-3.1c-0.3-0.5-0.5-1.7-0.8-3.6-0.2-1.5-1.1-2.1-2.6-2.1h-1.4zm0-8h1.4c1.7 0 3.1-0.6 3.1-2 0-1.2-0.9-2.1-2.9-2.1-0.7 0-1.2 0-1.6 0.1z"/>
			</g>
		</g>
	</g>
</svg>