<svg version="1.2" baseProfile="tiny-ps" xmlns="http://www.w3.org/2000/svg" viewBox="0 0 1500 615" width="1500" height="615">
	<title>Pfizer_(2021)-svg</title>
	<style>
		tspan { white-space:pre }
		.shp0 { fill: #0190ff } 
		.shp1 { fill: #2b01be } 
	</style>
	<path id="path4664" class="shp0" d="M29.23 245.74C46.93 181.04 120.64 165.64 188.51 163.73C244.3 162.17 306.51 169.55 306.51 169.55L277.28 276.41C277.28 276.41 215.07 269.04 159.28 270.6C91.41 272.5 17.7 287.9 0 352.61L29.23 245.74Z" />
	<path id="path4655" fill-rule="evenodd" class="shp1" d="M968.36 131.97C1057.71 131.97 1045.94 219.58 998.23 219.58C976.27 219.58 963.73 202.51 968.37 185.53C971.73 173.26 984.2 157.17 959.69 156.25C937.51 155.41 922.26 180.2 912.93 214.33C907.87 232.82 901.67 255.48 895.85 276.76L1009.37 276.76L963.19 445.57L907.51 445.57L946.01 304.8L888.18 304.8L803.56 614.15L747.88 614.15L843.32 265.27C856.13 218.44 879.02 131.97 968.36 131.97ZM652.5 193.02C682.91 193.02 713.31 193.02 743.72 193.02C806.07 193.02 829.34 238.8 820.02 278.65C810.04 321.34 773.12 352.05 717.48 352.05L667.05 352.05L641.48 445.57L583.43 445.57L652.5 193.02L652.5 193.02ZM675.2 322.26L696.69 322.26C725.26 322.26 758.02 304.17 762.17 273.99C766.65 241.44 748.11 222.74 724.74 222.74L702.42 222.74L675.2 322.26ZM1252.89 271.65C1331.92 271.65 1327.68 345.46 1319.94 365.09L1211.7 365.09C1208.02 398.44 1224.65 419.36 1251.16 419.36C1277.66 419.36 1296.69 403.88 1296.69 403.88L1307.1 429.59C1307.1 429.59 1284.34 449.51 1239.09 449.51C1175.43 449.51 1152.3 395.92 1160.42 355.6C1168.87 313.64 1204.08 271.65 1252.89 271.65ZM1468.66 273.92C1513.84 273.92 1506.22 335.67 1470.9 335.67C1447.62 335.67 1448.76 306.91 1436.83 308.05C1426.5 309.03 1405.01 333.14 1394.48 371.63C1387.65 396.25 1374.25 445.57 1374.25 445.57L1318.56 445.57L1364.74 276.76L1420.42 276.76L1410.94 311.41C1410.94 311.41 1432.35 273.92 1468.65 273.92L1468.66 273.92ZM1177.99 276.76L1067.03 417.52L1146.65 417.52L1138.98 445.57L982.29 445.57L1093.25 304.81L1022.67 304.81L1030.34 276.76L1177.99 276.76ZM1252.68 299.52C1225.48 299.52 1215.42 339.35 1215.42 339.35L1276.07 339.5C1276.07 339.5 1282.96 299.52 1252.68 299.52L1252.68 299.52Z" />
	<path id="path4668" class="shp1" d="M452.76 445.96C253.08 433.51 21.04 330.51 29.23 245.74L1.68 346.47C-6.68 432.96 208.58 535.64 423.53 552.83L452.76 445.96Z" />
	<path id="path4672" class="shp1" d="M525.33 307.08C507.63 371.79 433.92 387.19 366.05 389.09C310.26 390.65 248.05 383.28 248.05 383.28L277.28 276.41C277.28 276.41 339.49 283.79 395.28 282.23C463.14 280.32 536.86 264.92 554.56 200.22L525.33 307.08Z" />
	<path id="path4674" class="shp0" d="M101.79 106.86C301.47 119.32 533.52 222.31 525.33 307.08L552.88 206.35C561.23 119.87 345.98 17.19 131.02 0L101.79 106.86Z" />
</svg>