<svg version="1.2" xmlns="http://www.w3.org/2000/svg" viewBox="0 0 1546 115" width="1546" height="115"><style></style><path  d="m1033.3 113h-9.3c-2.7 0-4.8-2.2-4.8-4.8v-38.8h-37.8v38.8c0 2.6-2.1 4.8-4.8 4.8h-9.3c-2.6 0-4.8-2.2-4.8-4.8v-87.7c0-2.6 2.2-4.8 4.7-4.8h9.6c2.5 0 4.6 2.2 4.6 4.8v35.2h37.8v-35.2c0-2.6 2.1-4.8 4.6-4.8h9.6c2.5 0 4.7 2.2 4.7 4.8v87.7c0 2.6-2.2 4.8-4.8 4.8z"/><path  d="m40.7 114.6c-30 0-40.7-16.8-40.7-36.8v-69.4c0-2.8 2.4-5.5 5.3-5.5h8.5c2.9 0 5.3 2.7 5.3 5.5v71.4c0 18.1 10.1 23 22 23 15.8 0 22-8.1 22-23v-71.4c0-2.8 2.4-5.5 5.3-5.5h7.5c2.9 0 5.3 2.7 5.3 5.5v69.4c0 23.2-14.1 36.8-40.5 36.8z"/><path fill-rule="evenodd" d="m461.7 113h-35.3c-2.5 0-4.6-2.2-4.6-4.7v-87.8c0-2.5 2.1-4.8 4.6-4.8h35.3c23.2 0 41.7 12.4 41.7 49.2 0 36.8-19.9 48-41.7 48.1zm-4.5-86h-16.7v74.7h16.7c22.1 0 27.4-16.7 27.4-36.8 0-20.2-5.1-37.9-27.4-37.9z"/><path  d="m604 113h-8.4c-3 0-5.4-2.4-5.4-5.4v-44.4h-44.9v44.4c0 3-2.3 5.4-5.4 5.4h-8.3c-3 0-5.4-2.4-5.4-5.4v-98.6c0-2.8 2.4-5.3 5.2-5.3h8.7c2.9 0 5.2 2.5 5.2 5.3v40.2h44.9v-40.2c0-2.8 2.4-5.3 5.2-5.3h8.7c2.9 0 5.2 2.5 5.2 5.3v98.6c0 3-2.3 5.4-5.3 5.4z"/><path  d="m866.9 113h-47.2c-2.6 0-4.8-2.1-4.8-4.8v-87.8c0-2.5 2.2-4.7 4.7-4.7h9.9c2.5 0 4.6 2.2 4.6 4.7v78.8h32.8c2.6 0 4.7 2.3 4.7 4.8v4.3c0 2.6-2.1 4.7-4.7 4.7z"/><path  d="m228.6 113h-9.6c-2.7 0-4.8-2.2-4.8-4.9v-87.6c0-2.5 2.1-4.8 4.7-4.8h9.8c2.5 0 4.6 2.3 4.6 4.8v87.6c0 2.7-2.1 4.9-4.7 4.9z"/><path  d="m319 29.4h-22.2v78.7c0 2.7-2.1 4.9-4.8 4.9h-9.6c-2.6 0-4.7-2.2-4.7-4.9v-78.7h-22.4c-2.6 0-4.7-2.1-4.7-4.6v-4.3c0-2.5 2.1-4.8 4.7-4.8h63.7c2.6 0 4.7 2.3 4.7 4.8v4.3c0 2.5-2.1 4.6-4.7 4.6z"/><path  d="m940.5 29.4h-23.8v78.7c0 2.7-2.1 4.9-4.8 4.9h-9.5c-2.7 0-4.8-2.2-4.8-4.9v-78.7h-23.9c-2.6 0-4.7-2.1-4.7-4.6v-4.3c0-2.5 2.1-4.8 4.7-4.8h66.8c2.5 0 4.6 2.3 4.6 4.8v4.3c0 2.5-2.1 4.6-4.6 4.6z"/><path  d="m400.1 113h-55.1c-2.6 0-4.7-1.7-4.7-4.2v-88.3c0-2.5 2.1-4.8 4.7-4.8h53.1c2.6 0 4.7 2.3 4.7 4.8v3.9c0 2.5-2.1 4.6-4.7 4.6h-38.6v26.9h34.7c2.6 0 4.7 2.3 4.7 4.8v3.9c0 2.5-2.1 4.6-4.7 4.6h-34.7v30.5h40.6c2.6 0 4.7 2.2 4.7 4.8v4.3c0 2.6-2.1 4.2-4.7 4.2z"/><path  d="m694.7 113h-55.2c-2.5 0-4.6-1.7-4.6-4.2v-88.3c0-2.5 2.1-4.8 4.6-4.8h53.2c2.5 0 4.6 2.3 4.6 4.8v3.9c0 2.5-2.1 4.6-4.6 4.6h-38.7v26.9h34.8c2.5 0 4.6 2.3 4.6 4.8v3.9c0 2.5-2.1 4.6-4.6 4.6h-34.8v30.5h40.7c2.5 0 4.6 2.2 4.6 4.8v4.3c0 2.6-2.1 4.2-4.6 4.2z"/><path  d="m180.1 113h-14.4c-4.5 0-6.6-2.1-7.7-4.6-7.2-15.1-34.9-77.1-34.9-77.1v77c0 2.5-2.1 4.7-4.7 4.7h-6.5c-2.5 0-4.6-2.2-4.6-4.7v-87.9c0-2.6 2.1-4.7 4.6-4.7h14.2c4.1 0 6.7 1.4 8.1 4.5 7.5 16.3 34.8 76.7 34.8 76.7v-76.5c0-2.6 2.1-4.7 4.6-4.7h6.6c2.5 0 4.6 2.1 4.6 4.7v87.9c0 2.5-2.1 4.7-4.7 4.7z"/><path fill-rule="evenodd" d="m797.2 109.4c0 2.1-1.4 3.6-3.5 3.6h-9.2c-4.3 0-6.2-2-7-4.5l-5.7-18.2h-35.7l-5.5 18.2c-1 2.9-3.4 4.5-6.8 4.5h-6.3c-1.7 0-3.4-1.5-3.4-3.4 0-0.8 0.3-1.4 0.6-2.3l28-87.1c1-3 3-4.5 6.6-4.5h12.4c3.5 0 5.9 1.5 6.9 4.5l28.1 86.6c0.2 1 0.5 1.7 0.5 2.6zm-29.4-31.1l-13.7-48.2-14.6 48.2z"/><path  d="m1224.8 58.8c12.2 0 17.1-5.5 17.1-16 0-11.1-5.6-16.2-16.8-16.2h-16.2v81.2c0 2.6-2.1 4.7-4.6 4.7h-10.1c-2.5 0-4.6-2.1-4.6-4.7v-87.8c0-2.5 2.1-4.8 4.6-4.8h32.9c20.1 0 32.7 9.1 32.7 27.6 0 14.6-9.3 21.6-20 24.4l21.1 39.4c0.4 0.8 0.8 1.7 0.8 2.7 0 1.6-1.1 3.2-2.6 3.2h-12.3c-1.4 0-3-1.2-3.7-2.7l-22.5-43.9c-0.6-1.1-1.6-2.8-1.6-4.5 0-1.5 0.7-2.6 3.3-2.6h2.5z"/><path fill-rule="evenodd" d="m1318.4 114.5c-18.8 0-42.9-6.4-42.9-50.6 0-44.3 23.9-50.7 42.9-50.7 19.1 0 42.9 6.7 42.9 50.7 0 43.9-23.3 50.6-42.9 50.6zm0-90.4c-20.2 0-23.7 18.1-23.7 39.8 0 21.6 3.7 39.7 23.4 39.7 19.8 0 24.1-17.1 24.1-39.7 0-22.7-3.8-39.8-23.8-39.8z"/><path  d="m1416.7 114.5c-26.2 0-36.9-14.7-36.9-32.5v-62c0-2.6 2.1-4.8 4.6-4.8h9.9c2.5 0 4.6 2.2 4.6 4.8v63.1c0 16.1 7.8 20.5 18.7 20.5 14.3 0 18.7-8.4 18.7-20.5v-63.1c0-2.6 2.1-4.8 4.6-4.8h8c2.6 0 4.7 2.2 4.7 4.8v62c0 20.6-13 32.5-36.9 32.5z"/><path  d="m1504.9 63.8h4.8c9.9 0 17.6-5 17.6-18.2 0-14.4-7.5-19.2-18.1-19.2h-15.1v81.4c0 2.6-1.9 4.7-4.4 4.7h-9.7c-2.5 0-4.6-2.1-4.6-4.7v-87.8c0-2.6 2.1-4.8 4.6-4.8h35.2c19 0 30 11.5 30 30.4 0 17.1-10.1 28.6-30 28.6-3.8 0-7.6-0.4-9.9-0.7-4-0.7-5.8-2.9-5.8-5.2 0-2.3 1.8-4.5 5.4-4.5z"/><path  d="m1163.6 109.3c-5.2 2.3-13.2 5.6-30.1 5.6-27.5 0-52.3-11.5-52.3-57.1 0-35.7 15.3-57 52.3-57 17.1 0 26.5 4.5 28.8 5.5 3.4 1.4 3.6 2.1 3.6 3.7 0 0.7-0.4 3-0.5 3.6-0.6 2.8-1.4 7.3-1.8 9.8-0.2 1.3-0.4 3.2-2.5 3.2-1.7 0-3.2-2-4.1-2.9-1.5-1.5-9.7-10-23.5-10-26.3 0-30.7 25.1-30.7 44.1 0 26.3 8.6 44.2 30.7 44.2 8.5 0 12.9-1.4 14.3-1.8v-36c0-2.2 1.3-2.9 3.5-2.9h12.2c2.5 0 3.4 1 3.4 3v39.5c0 3.7-0.2 4.1-3.3 5.5z"/></svg>