<?xml version="1.0" encoding="UTF-8" standalone="no"?>
<!-- Created with Inkscape (http://www.inkscape.org/) -->

<svg
   xmlns:dc="http://purl.org/dc/elements/1.1/"
   xmlns:cc="http://creativecommons.org/ns#"
   xmlns:rdf="http://www.w3.org/1999/02/22-rdf-syntax-ns#"
   xmlns:svg="http://www.w3.org/2000/svg"
   xmlns="http://www.w3.org/2000/svg"
   xmlns:xlink="http://www.w3.org/1999/xlink"
   xmlns:sodipodi="http://sodipodi.sourceforge.net/DTD/sodipodi-0.dtd"
   xmlns:inkscape="http://www.inkscape.org/namespaces/inkscape"
   width="980.37"
   height="520"
   id="svg3319"
   version="1.1"
   inkscape:version="0.48.4 r9939"
   sodipodi:docname="Neues Dokument 3">
  <defs
     id="defs3321">
    <clipPath
       clipPathUnits="userSpaceOnUse"
       id="clipPath112">
      <path
         inkscape:connector-curvature="0"
         d="m 260.489,47.772 91.022,0 0,47.401 -91.022,0 0,-47.401 z"
         id="path114" />
    </clipPath>
    <linearGradient
       x1="0"
       y1="0"
       x2="1"
       y2="0"
       gradientUnits="userSpaceOnUse"
       gradientTransform="matrix(-1.1e-6,-24.614797,-24.614797,1.1e-6,310.52017,-212.99975)"
       spreadMethod="pad"
       id="linearGradient76">
      <stop
         style="stop-opacity:1;stop-color:#ffffff"
         offset="0"
         id="stop78" />
      <stop
         style="stop-opacity:1;stop-color:#211c1c"
         offset="1"
         id="stop80" />
    </linearGradient>
    <linearGradient
       x1="0"
       y1="0"
       x2="1"
       y2="0"
       gradientUnits="userSpaceOnUse"
       gradientTransform="matrix(-1.1e-6,-25.571706,-25.571706,1.1e-6,307.06526,-225.94569)"
       spreadMethod="pad"
       id="linearGradient56">
      <stop
         style="stop-opacity:1;stop-color:#ffffff"
         offset="0"
         id="stop58" />
      <stop
         style="stop-opacity:1;stop-color:#211c1c"
         offset="1"
         id="stop60" />
    </linearGradient>
    <linearGradient
       x1="-11.962553"
       y1="0.16764802"
       x2="-10.966747"
       y2="0.16764797"
       gradientUnits="userSpaceOnUse"
       gradientTransform="matrix(-1.1e-6,-25.571706,-25.571706,1.1e-6,314.07161,-301.14649)"
       spreadMethod="pad"
       id="linearGradient36"
       xlink:href="#linearGradient76">
      <stop
         style="stop-opacity:1;stop-color:#ffffff"
         offset="0"
         id="stop38" />
      <stop
         style="stop-opacity:1;stop-color:#211c1c"
         offset="1"
         id="stop40" />
    </linearGradient>
    <linearGradient
       inkscape:collect="always"
       xlink:href="#linearGradient76"
       id="linearGradient3528"
       x1="305.97916"
       y1="93.283081"
       x2="306.22379"
       y2="68.879211"
       gradientUnits="userSpaceOnUse"
       gradientTransform="translate(0,-75.20061)" />
    <linearGradient
       inkscape:collect="always"
       xlink:href="#linearGradient76"
       id="linearGradient3530"
       x1="302.79865"
       y1="80.255447"
       x2="302.79868"
       y2="54.506004"
       gradientUnits="userSpaceOnUse"
       gradientTransform="translate(0,-75.20061)" />
    <linearGradient
       inkscape:collect="always"
       xlink:href="#linearGradient76"
       id="linearGradient3532"
       gradientUnits="userSpaceOnUse"
       x1="306.34973"
       y1="93.12426"
       x2="306.27673"
       y2="68.508629"
       gradientTransform="translate(0,-75.20061)" />
    <linearGradient
       inkscape:collect="always"
       xlink:href="#linearGradient76"
       id="linearGradient3534"
       gradientUnits="userSpaceOnUse"
       x1="302.79865"
       y1="79.884865"
       x2="302.79868"
       y2="54.506004"
       gradientTransform="translate(0,-75.20061)" />
    <linearGradient
       inkscape:collect="always"
       xlink:href="#linearGradient76"
       id="linearGradient3560"
       gradientUnits="userSpaceOnUse"
       x1="302.79865"
       y1="80.255447"
       x2="302.79868"
       y2="54.506004"
       gradientTransform="translate(0,-75.20061)" />
    <linearGradient
       inkscape:collect="always"
       xlink:href="#linearGradient76"
       id="linearGradient3562"
       gradientUnits="userSpaceOnUse"
       x1="302.79865"
       y1="80.255447"
       x2="302.79868"
       y2="54.506004"
       gradientTransform="translate(0,-75.20061)" />
    <linearGradient
       inkscape:collect="always"
       xlink:href="#linearGradient76"
       id="linearGradient3564"
       gradientUnits="userSpaceOnUse"
       x1="302.79865"
       y1="80.255447"
       x2="302.79868"
       y2="54.506004"
       gradientTransform="translate(0,-75.20061)" />
    <linearGradient
       inkscape:collect="always"
       xlink:href="#linearGradient76"
       id="linearGradient3566"
       gradientUnits="userSpaceOnUse"
       x1="305.97916"
       y1="93.283081"
       x2="306.22379"
       y2="68.879211"
       gradientTransform="translate(0,-75.20061)" />
    <linearGradient
       inkscape:collect="always"
       xlink:href="#linearGradient76"
       id="linearGradient3568"
       gradientUnits="userSpaceOnUse"
       x1="305.97916"
       y1="93.283081"
       x2="306.22379"
       y2="68.879211"
       gradientTransform="translate(0,-75.20061)" />
    <linearGradient
       inkscape:collect="always"
       xlink:href="#linearGradient76"
       id="linearGradient3570"
       gradientUnits="userSpaceOnUse"
       x1="305.97916"
       y1="93.283081"
       x2="306.22379"
       y2="68.879211"
       gradientTransform="translate(0,-75.20061)" />
    <clipPath
       clipPathUnits="userSpaceOnUse"
       id="clipPath112-3">
      <path
         inkscape:connector-curvature="0"
         d="m 260.489,47.772 91.022,0 0,47.401 -91.022,0 0,-47.401 z"
         id="path114-4" />
    </clipPath>
    <linearGradient
       x1="0"
       y1="0"
       x2="1"
       y2="0"
       gradientUnits="userSpaceOnUse"
       gradientTransform="matrix(-1.3035275e-7,-2.916915,-2.916915,1.3035275e-7,295.79999,13.312449)"
       spreadMethod="pad"
       id="linearGradient76-0">
      <stop
         style="stop-opacity:1;stop-color:#ffffff"
         offset="0"
         id="stop78-8" />
      <stop
         style="stop-opacity:1;stop-color:#211c1c"
         offset="1"
         id="stop80-0" />
    </linearGradient>
    <linearGradient
       x1="-22.562845"
       y1="-2.478946"
       x2="-14.091739"
       y2="-2.4386077"
       gradientUnits="userSpaceOnUse"
       gradientTransform="matrix(-1.3035275e-7,-3.0303111,-3.0303111,1.3035275e-7,295.39057,11.778323)"
       spreadMethod="pad"
       id="linearGradient56-8"
       xlink:href="#linearGradient76-0">
      <stop
         style="stop-opacity:1;stop-color:#ffffff"
         offset="0"
         id="stop58-9" />
      <stop
         style="stop-opacity:1;stop-color:#211c1c"
         offset="1"
         id="stop60-8" />
    </linearGradient>
    <linearGradient
       x1="-22.542675"
       y1="-4.4639192"
       x2="-14.111908"
       y2="-4.4639196"
       gradientUnits="userSpaceOnUse"
       gradientTransform="matrix(-1.3035275e-7,-3.0303111,-3.0303111,1.3035275e-7,296.22084,11.778323)"
       spreadMethod="pad"
       id="linearGradient36-4"
       xlink:href="#linearGradient76-0">
      <stop
         style="stop-opacity:1;stop-color:#ffffff"
         offset="0"
         id="stop38-3" />
      <stop
         style="stop-opacity:1;stop-color:#211c1c"
         offset="1"
         id="stop40-3" />
    </linearGradient>
    <linearGradient
       inkscape:collect="always"
       xlink:href="#linearGradient76-0"
       id="linearGradient3881"
       x1="306.2641"
       y1="93.230286"
       x2="306.2641"
       y2="68.415863"
       gradientUnits="userSpaceOnUse" />
  </defs>
  <sodipodi:namedview
     id="base"
     pagecolor="#ffffff"
     bordercolor="#666666"
     borderopacity="1.0"
     inkscape:pageopacity="0.0"
     inkscape:pageshadow="2"
     inkscape:zoom="1.5510986"
     inkscape:cx="490.18502"
     inkscape:cy="260"
     inkscape:document-units="px"
     inkscape:current-layer="layer1"
     showgrid="false"
     fit-margin-top="0"
     fit-margin-left="0"
     fit-margin-right="0"
     fit-margin-bottom="0"
     inkscape:window-width="1680"
     inkscape:window-height="990"
     inkscape:window-x="-4"
     inkscape:window-y="-4"
     inkscape:window-maximized="1" />
  <metadata
     id="metadata3324">
    <rdf:RDF>
      <cc:Work
         rdf:about="">
        <dc:format>image/svg+xml</dc:format>
        <dc:type
           rdf:resource="http://purl.org/dc/dcmitype/StillImage" />
        <dc:title></dc:title>
      </cc:Work>
    </rdf:RDF>
  </metadata>
  <g
     inkscape:label="Ebene 1"
     inkscape:groupmode="layer"
     id="layer1"
     transform="translate(-425.8772,22.760421)">
    <g
       transform="matrix(10.548301,0,0,-10.548301,-2311.49,991.3301)"
       id="g24">
      <g
         id="g26">
        <g
           id="g32">
          <g
             id="g34">
            <path
               inkscape:connector-curvature="0"
               d="m 302.05,82.463 7.758,-28.319 7.757,28.319 -15.515,0 z"
               style="fill:url(#linearGradient36-4);stroke:none;fill-opacity:1"
               id="path42" />
          </g>
        </g>
      </g>
    </g>
    <g
       transform="matrix(10.548301,0,0,-10.548301,-2311.49,991.3301)"
       id="g44">
      <g
         id="g46">
        <g
           id="g52">
          <g
             id="g54">
            <path
               inkscape:connector-curvature="0"
               d="m 295.044,82.463 7.757,-28.319 7.758,28.319 -15.515,0 z"
               style="fill:url(#linearGradient56-8);stroke:none;fill-opacity:1"
               id="path62" />
          </g>
        </g>
      </g>
    </g>
    <g
       transform="matrix(10.548301,0,0,-10.548301,-2311.49,991.3301)"
       id="g64"
       style="fill-opacity:1;fill:url(#linearGradient3881)">
      <g
         id="g66"
         style="fill-opacity:1;fill:url(#linearGradient3881)">
        <g
           id="g72"
           style="fill-opacity:1;fill:url(#linearGradient3881)">
          <g
             id="g74"
             style="fill-opacity:1;fill:url(#linearGradient3881)">
            <path
               inkscape:connector-curvature="0"
               d="m 298.499,95.173 7.758,-28.318 7.757,28.318 -15.515,0 z"
               style="fill:url(#linearGradient3881);stroke:none;fill-opacity:1"
               id="path82" />
          </g>
        </g>
      </g>
    </g>
    <g
       id="g84"
       transform="matrix(10.548301,0,0,-10.548301,436.6419,431.04441)">
      <path
         inkscape:connector-curvature="0"
         d="m 0,0 0,-0.554 1.949,0 0,-4.711 0.557,0 0,4.711 1.949,0 L 4.455,0 0,0 z"
         style="fill:#231f20;fill-opacity:1;fill-rule:nonzero;stroke:none"
         id="path86" />
    </g>
    <g
       id="g88"
       transform="matrix(10.548301,0,0,-10.548301,436.64612,431.0391)">
      <path
         inkscape:connector-curvature="0"
         d="m 0,0 0,-0.555 1.949,0 0,-4.71 0.556,0 0,4.71 1.95,0 L 4.455,0 0,0 z"
         style="fill:none;stroke:#231f20;stroke-width:0.0094802;stroke-linecap:butt;stroke-linejoin:miter;stroke-miterlimit:4;stroke-opacity:1;stroke-dasharray:none"
         id="path90" />
    </g>
    <g
       id="g92"
       transform="matrix(10.548301,0,0,-10.548301,521.3996,445.07576)">
      <path
         inkscape:connector-curvature="0"
         d="m 0,0 0,-1.645 -2.525,0 0,1.645 -0.462,0 0,-3.93 0.462,0 0,1.823 2.525,0 0,-1.823 0.462,0 0,3.93 L 0,0 z"
         style="fill:#231f20;fill-opacity:1;fill-rule:nonzero;stroke:none"
         id="path94" />
    </g>
    <g
       id="g96"
       transform="matrix(10.548301,0,0,-10.548301,526.26659,486.53581)">
      <path
         inkscape:connector-curvature="0"
         d="m 0,0 -0.461,0 0,1.824 -2.526,0 0,-1.824 -0.461,0 0,3.931 0.461,0 0,-1.646 2.526,0 0,1.646 L 0,3.931 0,0 z"
         style="fill:none;stroke:#231f20;stroke-width:0.0094802;stroke-linecap:butt;stroke-linejoin:miter;stroke-miterlimit:4;stroke-opacity:1;stroke-dasharray:none"
         id="path98" />
    </g>
    <g
       id="g100"
       transform="matrix(10.548301,0,0,-10.548301,542.52253,445.07576)">
      <path
         inkscape:connector-curvature="0"
         d="m 0,0 0,-3.93 3.343,0 0,0.461 -2.882,0 0,1.347 1.457,0 0,0.461 -1.457,0 0,1.2 2.766,0 L 3.227,0 0,0 z"
         style="fill:#231f20;fill-opacity:1;fill-rule:nonzero;stroke:none"
         id="path102" />
    </g>
    <g
       id="g104"
       transform="matrix(10.548301,0,0,-10.548301,577.78871,486.53581)">
      <path
         inkscape:connector-curvature="0"
         d="m 0,0 -3.343,0 0,3.931 3.227,0 0,-0.462 -2.766,0 0,-1.2 1.457,0 0,-0.461 -1.457,0 0,-1.347 L 0,0.461 0,0 z"
         style="fill:none;stroke:#231f20;stroke-width:0.0094802;stroke-linecap:butt;stroke-linejoin:miter;stroke-miterlimit:4;stroke-opacity:1;stroke-dasharray:none"
         id="path106" />
    </g>
    <g
       transform="matrix(10.548301,0,0,-10.548301,-2311.49,991.3301)"
       id="g108">
      <g
         id="g110"
         clip-path="url(#clipPath112-3)">
        <g
           id="g116"
           transform="translate(283.0975,53.1625)">
          <path
             inkscape:connector-curvature="0"
             d="m 0,0 c -0.008,-0.024 -1.396,-4.305 -1.396,-4.305 l -0.05,0.095 C -1.447,-4.207 -2.547,-0.141 -2.585,0 l -0.543,0 c -0.007,-0.027 -1.064,-4.305 -1.064,-4.305 l -0.056,0.092 C -4.249,-4.209 -5.67,-0.127 -5.714,0 l -0.552,0 c 0.016,-0.046 1.79,-5.242 1.798,-5.265 l 0.517,0 c 0.006,0.026 1.095,4.208 1.095,4.208 l 0.053,-0.104 c 10e-4,-0.004 1.101,-3.966 1.139,-4.104 l 0.517,0 C -1.139,-5.241 0.538,-0.045 0.552,0 L 0,0 z"
             style="fill:#231f20;fill-opacity:1;fill-rule:nonzero;stroke:none"
             id="path118" />
        </g>
        <g
           id="g120"
           transform="translate(283.0975,53.1625)">
          <path
             inkscape:connector-curvature="0"
             d="m 0,0 c -0.008,-0.024 -1.396,-4.305 -1.396,-4.305 l -0.05,0.095 C -1.447,-4.207 -2.547,-0.141 -2.585,0 l -0.543,0 c -0.007,-0.027 -1.064,-4.305 -1.064,-4.305 l -0.056,0.092 C -4.249,-4.209 -5.67,-0.127 -5.714,0 l -0.552,0 c 0.016,-0.046 1.79,-5.242 1.798,-5.265 l 0.517,0 c 0.006,0.026 1.095,4.208 1.095,4.208 l 0.053,-0.104 c 10e-4,-0.004 1.101,-3.966 1.139,-4.104 l 0.517,0 C -1.139,-5.241 0.538,-0.045 0.552,0 L 0,0 z"
             style="fill:none;stroke:#231f20;stroke-width:0.0094802;stroke-linecap:butt;stroke-linejoin:miter;stroke-miterlimit:4;stroke-opacity:1;stroke-dasharray:none"
             id="path122" />
        </g>
        <g
           id="g124"
           transform="translate(287.677,47.8954)">
          <path
             inkscape:connector-curvature="0"
             d="m 0,0 -3.344,0 0,3.931 3.229,0 0,-0.462 -2.767,0 0,-1.2 1.457,0 0,-0.461 -1.457,0 0,-1.347 L 0,0.461 0,0 z"
             style="fill:#231f20;fill-opacity:1;fill-rule:nonzero;stroke:none"
             id="path126" />
        </g>
        <g
           id="g128"
           transform="translate(287.677,47.8954)">
          <path
             inkscape:connector-curvature="0"
             d="m 0,0 -3.344,0 0,3.931 3.229,0 0,-0.462 -2.767,0 0,-1.2 1.457,0 0,-0.461 -1.457,0 0,-1.347 L 0,0.461 0,0 z"
             style="fill:none;stroke:#231f20;stroke-width:0.0094802;stroke-linecap:butt;stroke-linejoin:miter;stroke-miterlimit:4;stroke-opacity:1;stroke-dasharray:none"
             id="path130" />
        </g>
        <path
           inkscape:connector-curvature="0"
           d="m 289.307,47.895 -0.461,0 0,3.931 0.461,0 0,-3.931 z"
           style="fill:#231f20;fill-opacity:1;fill-rule:nonzero;stroke:#231f20;stroke-width:0.0094802;stroke-linecap:butt;stroke-linejoin:miter;stroke-miterlimit:4;stroke-opacity:1;stroke-dasharray:none"
           id="path132" />
        <g
           id="g134"
           transform="translate(294.3694,47.8954)">
          <path
             inkscape:connector-curvature="0"
             d="m 0,0 -0.461,0 -2.547,3.202 -0.01,0 0,-3.202 -0.462,0 0,3.931 0.462,0 2.546,-3.245 0.011,0 0,3.245 L 0,3.931 0,0 z"
             style="fill:#231f20;fill-opacity:1;fill-rule:nonzero;stroke:none"
             id="path136" />
        </g>
        <g
           id="g138"
           transform="translate(294.3694,47.8954)">
          <path
             inkscape:connector-curvature="0"
             d="m 0,0 -0.461,0 -2.547,3.202 -0.01,0 0,-3.202 -0.462,0 0,3.931 0.462,0 2.546,-3.245 0.011,0 0,3.245 L 0,3.931 0,0 z"
             style="fill:none;stroke:#231f20;stroke-width:0.0094802;stroke-linecap:butt;stroke-linejoin:miter;stroke-miterlimit:4;stroke-opacity:1;stroke-dasharray:none"
             id="path140" />
        </g>
        <g
           id="g142"
           transform="translate(297.7286,50.2015)">
          <path
             inkscape:connector-curvature="0"
             d="m 0,0 c 0.734,0 1.478,-0.268 1.478,-1.137 0,-0.855 -0.912,-1.253 -1.876,-1.253 -1.195,0 -1.735,0.598 -1.965,0.844 l 0.329,0.325 c 0.242,-0.215 0.635,-0.708 1.652,-0.708 0.885,0 1.399,0.336 1.399,0.792 0,0.492 -0.498,0.676 -0.891,0.676 l -0.828,0 c -0.76,0 -1.373,0.251 -1.373,0.985 0,0.545 0.492,1.184 1.698,1.184 0.901,0 1.446,-0.429 1.645,-0.576 L 0.98,0.77 C 0.697,0.959 0.32,1.247 -0.388,1.247 -1.273,1.247 -1.614,0.833 -1.614,0.524 -1.614,0 -0.949,0 -0.477,0 L 0,0 z"
             style="fill:#231f20;fill-opacity:1;fill-rule:nonzero;stroke:none"
             id="path144" />
        </g>
        <g
           id="g146"
           transform="translate(297.7286,50.2015)">
          <path
             inkscape:connector-curvature="0"
             d="m 0,0 c 0.734,0 1.478,-0.268 1.478,-1.137 0,-0.855 -0.912,-1.253 -1.876,-1.253 -1.195,0 -1.735,0.598 -1.965,0.844 l 0.329,0.325 c 0.242,-0.215 0.635,-0.708 1.652,-0.708 0.885,0 1.399,0.336 1.399,0.792 0,0.492 -0.498,0.676 -0.891,0.676 l -0.828,0 c -0.76,0 -1.373,0.251 -1.373,0.985 0,0.545 0.492,1.184 1.698,1.184 0.901,0 1.446,-0.429 1.645,-0.576 L 0.98,0.77 C 0.697,0.959 0.32,1.247 -0.388,1.247 -1.273,1.247 -1.614,0.833 -1.614,0.524 -1.614,0 -0.949,0 -0.477,0 L 0,0 z"
             style="fill:none;stroke:#231f20;stroke-width:0.0094802;stroke-linecap:butt;stroke-linejoin:miter;stroke-miterlimit:4;stroke-opacity:1;stroke-dasharray:none"
             id="path148" />
        </g>
        <g
           id="g150"
           transform="translate(301.7272,47.8954)">
          <path
             inkscape:connector-curvature="0"
             d="m 0,0 -0.461,0 0,3.469 -1.436,0 0,0.462 3.333,0 0,-0.462 L 0,3.469 0,0 z"
             style="fill:#231f20;fill-opacity:1;fill-rule:nonzero;stroke:none"
             id="path152" />
        </g>
        <g
           id="g154"
           transform="translate(301.7272,47.8954)">
          <path
             inkscape:connector-curvature="0"
             d="m 0,0 -0.461,0 0,3.469 -1.436,0 0,0.462 3.333,0 0,-0.462 L 0,3.469 0,0 z"
             style="fill:none;stroke:#231f20;stroke-width:0.0094802;stroke-linecap:butt;stroke-linejoin:miter;stroke-miterlimit:4;stroke-opacity:1;stroke-dasharray:none"
             id="path156" />
        </g>
        <g
           id="g158"
           transform="translate(307.5705,47.8954)">
          <path
             inkscape:connector-curvature="0"
             d="m 0,0 -3.344,0 0,3.931 3.229,0 0,-0.462 -2.767,0 0,-1.2 1.457,0 0,-0.461 -1.457,0 0,-1.347 L 0,0.461 0,0 z"
             style="fill:#231f20;fill-opacity:1;fill-rule:nonzero;stroke:none"
             id="path160" />
        </g>
        <g
           id="g162"
           transform="translate(307.5705,47.8954)">
          <path
             inkscape:connector-curvature="0"
             d="m 0,0 -3.344,0 0,3.931 3.229,0 0,-0.462 -2.767,0 0,-1.2 1.457,0 0,-0.461 -1.457,0 0,-1.347 L 0,0.461 0,0 z"
             style="fill:none;stroke:#231f20;stroke-width:0.0094802;stroke-linecap:butt;stroke-linejoin:miter;stroke-miterlimit:4;stroke-opacity:1;stroke-dasharray:none"
             id="path164" />
        </g>
        <path
           inkscape:connector-curvature="0"
           d="m 309.2,47.895 -0.461,0 0,3.931 0.461,0 0,-3.931 z"
           style="fill:#231f20;fill-opacity:1;fill-rule:nonzero;stroke:#231f20;stroke-width:0.0094802;stroke-linecap:butt;stroke-linejoin:miter;stroke-miterlimit:4;stroke-opacity:1;stroke-dasharray:none"
           id="path166" />
        <g
           id="g168"
           transform="translate(314.2628,47.8954)">
          <path
             inkscape:connector-curvature="0"
             d="m 0,0 -0.461,0 -2.547,3.202 -0.011,0 0,-3.202 -0.461,0 0,3.931 0.461,0 2.547,-3.245 0.011,0 0,3.245 L 0,3.931 0,0 z"
             style="fill:#231f20;fill-opacity:1;fill-rule:nonzero;stroke:none"
             id="path170" />
        </g>
        <g
           id="g172"
           transform="translate(314.2628,47.8954)">
          <path
             inkscape:connector-curvature="0"
             d="m 0,0 -0.461,0 -2.547,3.202 -0.011,0 0,-3.202 -0.461,0 0,3.931 0.461,0 2.547,-3.245 0.011,0 0,3.245 L 0,3.931 0,0 z"
             style="fill:none;stroke:#231f20;stroke-width:0.0094802;stroke-linecap:butt;stroke-linejoin:miter;stroke-miterlimit:4;stroke-opacity:1;stroke-dasharray:none"
             id="path174" />
        </g>
        <g
           id="g176"
           transform="translate(317.3575,50.6421)">
          <path
             inkscape:connector-curvature="0"
             d="m 0,0 c 0,-1.803 1.471,-2.747 2.925,-2.747 1.44,0 2.133,0.664 2.465,0.983 0,0 0.031,0.03 0.046,0.044 -0.02,0.023 -0.357,0.4 -0.379,0.424 C 5.05,-1.303 5.043,-1.31 5.043,-1.31 4.775,-1.574 4.149,-2.191 2.953,-2.191 c -1.557,0 -2.397,1.136 -2.397,2.205 0,1.07 0.857,2.177 2.29,2.177 1.096,0 1.827,-0.613 2.111,-0.856 0.02,0.019 0.376,0.363 0.4,0.387 C 5.082,1.988 4.285,2.746 2.832,2.746 1.459,2.746 0,1.784 0,0"
             style="fill:#231f20;fill-opacity:1;fill-rule:nonzero;stroke:none"
             id="path178" />
        </g>
        <g
           id="g180"
           transform="translate(317.3575,50.6421)">
          <path
             inkscape:connector-curvature="0"
             d="m 0,0 c 0,-1.803 1.471,-2.747 2.925,-2.747 1.44,0 2.133,0.664 2.465,0.983 0,0 0.031,0.03 0.046,0.044 -0.02,0.023 -0.357,0.4 -0.379,0.424 C 5.05,-1.303 5.043,-1.31 5.043,-1.31 4.775,-1.574 4.149,-2.191 2.953,-2.191 c -1.557,0 -2.397,1.136 -2.397,2.205 0,1.07 0.857,2.177 2.29,2.177 1.096,0 1.827,-0.613 2.111,-0.856 0.02,0.019 0.376,0.363 0.4,0.387 C 5.082,1.988 4.285,2.746 2.832,2.746 1.459,2.746 0,1.784 0,0 z"
             style="fill:none;stroke:#231f20;stroke-width:0.0094802;stroke-linecap:butt;stroke-linejoin:miter;stroke-miterlimit:4;stroke-opacity:1;stroke-dasharray:none"
             id="path182" />
        </g>
        <g
           id="g184"
           transform="translate(325.7273,48.3556)">
          <path
             inkscape:connector-curvature="0"
             d="M 0,0 C 0.943,0 1.651,0.718 1.651,1.588 1.651,2.458 0.943,3.176 0,3.176 -0.943,3.176 -1.651,2.458 -1.651,1.588 -1.651,0.718 -0.943,0 0,0 m 0,3.637 c 1.205,0 2.112,-0.943 2.112,-2.049 0,-1.106 -0.907,-2.049 -2.112,-2.049 -1.205,0 -2.112,0.943 -2.112,2.049 0,1.106 0.901,2.049 2.112,2.049"
             style="fill:#231f20;fill-opacity:1;fill-rule:nonzero;stroke:none"
             id="path186" />
        </g>
        <g
           id="g188"
           transform="translate(325.7273,48.3556)">
          <path
             inkscape:connector-curvature="0"
             d="M 0,0 C 0.943,0 1.651,0.718 1.651,1.588 1.651,2.458 0.943,3.176 0,3.176 -0.943,3.176 -1.651,2.458 -1.651,1.588 -1.651,0.718 -0.943,0 0,0 z m 0,3.637 c 1.205,0 2.112,-0.943 2.112,-2.049 0,-1.106 -0.907,-2.049 -2.112,-2.049 -1.205,0 -2.112,0.943 -2.112,2.049 0,1.106 0.901,2.049 2.112,2.049 z"
             style="fill:none;stroke:#231f20;stroke-width:0.0094802;stroke-linecap:butt;stroke-linejoin:miter;stroke-miterlimit:4;stroke-opacity:1;stroke-dasharray:none"
             id="path190" />
        </g>
        <g
           id="g192"
           transform="translate(332.9859,47.9782)">
          <path
             inkscape:connector-curvature="0"
             d="m 0,0 -0.461,0 0,3.013 -0.011,0 -1.452,-2.683 -1.451,2.683 -0.011,0 0,-3.013 -0.461,0 0,3.931 0.461,0 1.462,-2.657 1.463,2.657 L 0,3.931 0,0 z"
             style="fill:#231f20;fill-opacity:1;fill-rule:nonzero;stroke:none"
             id="path194" />
        </g>
        <g
           id="g196"
           transform="translate(332.9859,47.9782)">
          <path
             inkscape:connector-curvature="0"
             d="m 0,0 -0.461,0 0,3.013 -0.011,0 -1.452,-2.683 -1.451,2.683 -0.011,0 0,-3.013 -0.461,0 0,3.931 0.461,0 1.462,-2.657 1.463,2.657 L 0,3.931 0,0 z"
             style="fill:none;stroke:#231f20;stroke-width:0.0094802;stroke-linecap:butt;stroke-linejoin:miter;stroke-miterlimit:4;stroke-opacity:1;stroke-dasharray:none"
             id="path198" />
        </g>
        <g
           id="g200"
           transform="translate(336.7119,50.1216)">
          <path
             inkscape:connector-curvature="0"
             d="M 0,0 C 0.44,0 0.775,0.136 0.775,0.661 0.775,1.211 0.398,1.326 0,1.326 l -1.708,0 L -1.708,0 0,0 z m -1.708,-2.143 -0.462,0 0,3.93 2.17,0 c 0.487,0 1.236,-0.194 1.236,-1.126 0,-0.834 -0.545,-1.122 -1.236,-1.122 l -1.708,0 0,-1.682 z"
             style="fill:#231f20;fill-opacity:1;fill-rule:nonzero;stroke:none"
             id="path202" />
        </g>
        <g
           id="g204"
           transform="translate(336.7119,50.1216)">
          <path
             inkscape:connector-curvature="0"
             d="M 0,0 C 0.44,0 0.775,0.136 0.775,0.661 0.775,1.211 0.398,1.326 0,1.326 l -1.708,0 L -1.708,0 0,0 z m -1.708,-2.143 -0.462,0 0,3.93 2.17,0 c 0.487,0 1.236,-0.194 1.236,-1.126 0,-0.834 -0.545,-1.122 -1.236,-1.122 l -1.708,0 0,-1.682 z"
             style="fill:none;stroke:#231f20;stroke-width:0.0094802;stroke-linecap:butt;stroke-linejoin:miter;stroke-miterlimit:4;stroke-opacity:1;stroke-dasharray:none"
             id="path206" />
        </g>
        <g
           id="g208"
           transform="translate(340.3233,51.3481)">
          <path
             inkscape:connector-curvature="0"
             d="m 0,0 -0.739,-1.562 1.452,0 L 0,0 z m 2.07,-3.37 -0.514,0 -0.639,1.347 -1.887,0 -0.618,-1.347 -0.514,0 1.871,3.931 0.461,0 1.84,-3.931 z"
             style="fill:#231f20;fill-opacity:1;fill-rule:nonzero;stroke:none"
             id="path210" />
        </g>
        <g
           id="g212"
           transform="translate(340.3233,51.3481)">
          <path
             inkscape:connector-curvature="0"
             d="m 0,0 -0.739,-1.562 1.452,0 L 0,0 z m 2.07,-3.37 -0.514,0 -0.639,1.347 -1.887,0 -0.618,-1.347 -0.514,0 1.871,3.931 0.461,0 1.84,-3.931 z"
             style="fill:none;stroke:#231f20;stroke-width:0.0094802;stroke-linecap:butt;stroke-linejoin:miter;stroke-miterlimit:4;stroke-opacity:1;stroke-dasharray:none"
             id="path214" />
        </g>
        <g
           id="g216"
           transform="translate(346.7641,47.9782)">
          <path
             inkscape:connector-curvature="0"
             d="m 0,0 -0.461,0 -2.547,3.202 -0.011,0 0,-3.202 -0.461,0 0,3.931 0.461,0 2.547,-3.245 0.011,0 0,3.245 L 0,3.931 0,0 z"
             style="fill:#231f20;fill-opacity:1;fill-rule:nonzero;stroke:none"
             id="path218" />
        </g>
        <g
           id="g220"
           transform="translate(346.7641,47.9782)">
          <path
             inkscape:connector-curvature="0"
             d="m 0,0 -0.461,0 -2.547,3.202 -0.011,0 0,-3.202 -0.461,0 0,3.931 0.461,0 2.547,-3.245 0.011,0 0,3.245 L 0,3.931 0,0 z"
             style="fill:none;stroke:#231f20;stroke-width:0.0094802;stroke-linecap:butt;stroke-linejoin:miter;stroke-miterlimit:4;stroke-opacity:1;stroke-dasharray:none"
             id="path222" />
        </g>
        <g
           id="g224"
           transform="translate(349.746,47.9782)">
          <path
             inkscape:connector-curvature="0"
             d="m 0,0 -0.461,0 0,1.819 -1.662,2.112 0.598,0 1.305,-1.657 1.305,1.657 0.597,0 L 0,1.819 0,0 z"
             style="fill:#231f20;fill-opacity:1;fill-rule:nonzero;stroke:none"
             id="path226" />
        </g>
        <g
           id="g228"
           transform="translate(349.746,47.9782)">
          <path
             inkscape:connector-curvature="0"
             d="m 0,0 -0.461,0 0,1.819 -1.662,2.112 0.598,0 1.305,-1.657 1.305,1.657 0.597,0 L 0,1.819 0,0 z"
             style="fill:none;stroke:#231f20;stroke-width:0.0094802;stroke-linecap:butt;stroke-linejoin:miter;stroke-miterlimit:4;stroke-opacity:1;stroke-dasharray:none"
             id="path230" />
        </g>
      </g>
    </g>
  </g>
</svg>
